<mxfile host="app.diagrams.net" modified="2023-06-11T20:47:04.088Z" agent="Mozilla/5.0 (Windows NT 10.0; Win64; x64) AppleWebKit/537.36 (KHTML, like Gecko) Chrome/112.0.0.0 Safari/537.36 OPR/98.0.0.0" etag="Pat19KXO7VP60muBNbmB" version="21.3.7" type="device">
  <diagram name="PÃ¡gina-1" id="jwAK9uukY3M1FDaXMniS">
    <mxGraphModel dx="1773" dy="441" grid="1" gridSize="10" guides="1" tooltips="1" connect="1" arrows="1" fold="1" page="1" pageScale="1" pageWidth="827" pageHeight="1169" math="0" shadow="0">
      <root>
        <mxCell id="0" />
        <mxCell id="1" parent="0" />
        <mxCell id="evNd5tsoBMQe8YD3A1kR-1" value="&lt;font style=&quot;vertical-align: inherit;&quot;&gt;&lt;font style=&quot;vertical-align: inherit;&quot;&gt;Fabrica&lt;/font&gt;&lt;/font&gt;" style="whiteSpace=wrap;html=1;align=center;" parent="1" vertex="1">
          <mxGeometry x="242.5" y="100" width="80" height="30" as="geometry" />
        </mxCell>
        <mxCell id="evNd5tsoBMQe8YD3A1kR-2" value="&lt;font style=&quot;vertical-align: inherit;&quot;&gt;&lt;font style=&quot;vertical-align: inherit;&quot;&gt;Sucursal&lt;br&gt;&lt;/font&gt;&lt;/font&gt;" style="whiteSpace=wrap;html=1;align=center;" parent="1" vertex="1">
          <mxGeometry x="612.5" y="100" width="80" height="30" as="geometry" />
        </mxCell>
        <mxCell id="evNd5tsoBMQe8YD3A1kR-3" value="&lt;font style=&quot;vertical-align: inherit;&quot;&gt;&lt;font style=&quot;vertical-align: inherit;&quot;&gt;Abastece&lt;/font&gt;&lt;/font&gt;" style="shape=rhombus;perimeter=rhombusPerimeter;whiteSpace=wrap;html=1;align=center;" parent="1" vertex="1">
          <mxGeometry x="421.5" y="95" width="90" height="40" as="geometry" />
        </mxCell>
        <mxCell id="evNd5tsoBMQe8YD3A1kR-5" value="&lt;font style=&quot;vertical-align: inherit;&quot;&gt;&lt;font style=&quot;vertical-align: inherit;&quot;&gt;&lt;font style=&quot;vertical-align: inherit;&quot;&gt;&lt;font style=&quot;vertical-align: inherit;&quot;&gt;&lt;font style=&quot;vertical-align: inherit;&quot;&gt;&lt;font style=&quot;vertical-align: inherit;&quot;&gt;Pertenecen&lt;/font&gt;&lt;/font&gt;&lt;/font&gt;&lt;/font&gt;&lt;/font&gt;&lt;/font&gt;" style="shape=rhombus;perimeter=rhombusPerimeter;whiteSpace=wrap;html=1;align=center;" parent="1" vertex="1">
          <mxGeometry x="367" y="160" width="80" height="30" as="geometry" />
        </mxCell>
        <mxCell id="evNd5tsoBMQe8YD3A1kR-6" value="" style="endArrow=none;html=1;rounded=0;" parent="1" source="evNd5tsoBMQe8YD3A1kR-3" target="evNd5tsoBMQe8YD3A1kR-2" edge="1">
          <mxGeometry relative="1" as="geometry">
            <mxPoint x="382.5" y="300" as="sourcePoint" />
            <mxPoint x="542.5" y="300" as="targetPoint" />
          </mxGeometry>
        </mxCell>
        <mxCell id="evNd5tsoBMQe8YD3A1kR-7" value="" style="endArrow=none;html=1;rounded=0;" parent="1" source="evNd5tsoBMQe8YD3A1kR-1" target="evNd5tsoBMQe8YD3A1kR-3" edge="1">
          <mxGeometry relative="1" as="geometry">
            <mxPoint x="382.5" y="300" as="sourcePoint" />
            <mxPoint x="542.5" y="300" as="targetPoint" />
          </mxGeometry>
        </mxCell>
        <mxCell id="evNd5tsoBMQe8YD3A1kR-8" value="" style="endArrow=none;html=1;rounded=0;" parent="1" source="XzaRd1j-h2BiTwVMXHG0-2" target="evNd5tsoBMQe8YD3A1kR-2" edge="1">
          <mxGeometry relative="1" as="geometry">
            <mxPoint x="550" y="200" as="sourcePoint" />
            <mxPoint x="542.5" y="300" as="targetPoint" />
          </mxGeometry>
        </mxCell>
        <mxCell id="evNd5tsoBMQe8YD3A1kR-9" value="" style="endArrow=none;html=1;rounded=0;" parent="1" source="evNd5tsoBMQe8YD3A1kR-1" target="evNd5tsoBMQe8YD3A1kR-5" edge="1">
          <mxGeometry relative="1" as="geometry">
            <mxPoint x="382.5" y="300" as="sourcePoint" />
            <mxPoint x="542.5" y="300" as="targetPoint" />
          </mxGeometry>
        </mxCell>
        <mxCell id="evNd5tsoBMQe8YD3A1kR-10" value="" style="triangle;whiteSpace=wrap;html=1;rotation=-90;" parent="1" vertex="1">
          <mxGeometry x="449" y="332.42" width="30" height="40" as="geometry" />
        </mxCell>
        <mxCell id="evNd5tsoBMQe8YD3A1kR-11" value="" style="endArrow=none;html=1;rounded=0;exitX=0.25;exitY=0;exitDx=0;exitDy=0;" parent="1" source="evNd5tsoBMQe8YD3A1kR-13" target="evNd5tsoBMQe8YD3A1kR-5" edge="1">
          <mxGeometry relative="1" as="geometry">
            <mxPoint x="394.5" y="300" as="sourcePoint" />
            <mxPoint x="554.5" y="300" as="targetPoint" />
            <Array as="points">
              <mxPoint x="430" y="220" />
            </Array>
          </mxGeometry>
        </mxCell>
        <mxCell id="evNd5tsoBMQe8YD3A1kR-13" value="&lt;font style=&quot;vertical-align: inherit;&quot;&gt;&lt;font style=&quot;vertical-align: inherit;&quot;&gt;&lt;font style=&quot;vertical-align: inherit;&quot;&gt;&lt;font style=&quot;vertical-align: inherit;&quot;&gt;Personas&lt;/font&gt;&lt;/font&gt;&lt;/font&gt;&lt;/font&gt;" style="whiteSpace=wrap;html=1;align=center;" parent="1" vertex="1">
          <mxGeometry x="424" y="272.42" width="80" height="30" as="geometry" />
        </mxCell>
        <mxCell id="evNd5tsoBMQe8YD3A1kR-15" value="" style="endArrow=none;html=1;rounded=0;" parent="1" source="evNd5tsoBMQe8YD3A1kR-13" target="evNd5tsoBMQe8YD3A1kR-10" edge="1">
          <mxGeometry relative="1" as="geometry">
            <mxPoint x="368" y="302.42" as="sourcePoint" />
            <mxPoint x="452.8901098901101" y="407.58483516483506" as="targetPoint" />
          </mxGeometry>
        </mxCell>
        <mxCell id="evNd5tsoBMQe8YD3A1kR-17" value="" style="endArrow=none;html=1;rounded=0;" parent="1" source="evNd5tsoBMQe8YD3A1kR-10" target="XzaRd1j-h2BiTwVMXHG0-5" edge="1">
          <mxGeometry relative="1" as="geometry">
            <mxPoint x="383.5" y="360" as="sourcePoint" />
            <mxPoint x="468" y="410" as="targetPoint" />
          </mxGeometry>
        </mxCell>
        <mxCell id="evNd5tsoBMQe8YD3A1kR-19" value="" style="endArrow=none;html=1;rounded=0;entryX=0.5;entryY=0;entryDx=0;entryDy=0;" parent="1" source="XzaRd1j-h2BiTwVMXHG0-11" target="evNd5tsoBMQe8YD3A1kR-21" edge="1">
          <mxGeometry relative="1" as="geometry">
            <mxPoint x="200" y="520" as="sourcePoint" />
            <mxPoint x="172.5" y="570" as="targetPoint" />
          </mxGeometry>
        </mxCell>
        <mxCell id="evNd5tsoBMQe8YD3A1kR-20" value="" style="endArrow=none;html=1;rounded=0;entryX=0.5;entryY=0;entryDx=0;entryDy=0;" parent="1" source="XzaRd1j-h2BiTwVMXHG0-13" target="evNd5tsoBMQe8YD3A1kR-22" edge="1">
          <mxGeometry relative="1" as="geometry">
            <mxPoint x="733" y="560" as="sourcePoint" />
            <mxPoint x="732.5" y="570" as="targetPoint" />
          </mxGeometry>
        </mxCell>
        <mxCell id="evNd5tsoBMQe8YD3A1kR-21" value="&lt;font style=&quot;vertical-align: inherit;&quot;&gt;&lt;font style=&quot;vertical-align: inherit;&quot;&gt;&lt;font style=&quot;vertical-align: inherit;&quot;&gt;&lt;font style=&quot;vertical-align: inherit;&quot;&gt;&lt;font style=&quot;vertical-align: inherit;&quot;&gt;&lt;font style=&quot;vertical-align: inherit;&quot;&gt;Vendedor&lt;/font&gt;&lt;/font&gt;&lt;/font&gt;&lt;/font&gt;&lt;/font&gt;&lt;/font&gt;" style="whiteSpace=wrap;html=1;align=center;" parent="1" vertex="1">
          <mxGeometry x="137.5" y="500" width="80" height="30" as="geometry" />
        </mxCell>
        <mxCell id="evNd5tsoBMQe8YD3A1kR-22" value="&lt;font style=&quot;vertical-align: inherit;&quot;&gt;&lt;font style=&quot;vertical-align: inherit;&quot;&gt;&lt;font style=&quot;vertical-align: inherit;&quot;&gt;&lt;font style=&quot;vertical-align: inherit;&quot;&gt;&lt;font style=&quot;vertical-align: inherit;&quot;&gt;&lt;font style=&quot;vertical-align: inherit;&quot;&gt;Mayorista&lt;/font&gt;&lt;/font&gt;&lt;/font&gt;&lt;/font&gt;&lt;/font&gt;&lt;/font&gt;" style="whiteSpace=wrap;html=1;align=center;" parent="1" vertex="1">
          <mxGeometry x="677.5" y="500" width="80" height="30" as="geometry" />
        </mxCell>
        <mxCell id="evNd5tsoBMQe8YD3A1kR-23" value="&lt;font style=&quot;vertical-align: inherit;&quot;&gt;&lt;font style=&quot;vertical-align: inherit;&quot;&gt;&lt;font style=&quot;vertical-align: inherit;&quot;&gt;&lt;font style=&quot;vertical-align: inherit;&quot;&gt;&lt;font style=&quot;vertical-align: inherit;&quot;&gt;&lt;font style=&quot;vertical-align: inherit;&quot;&gt;Administrador&lt;/font&gt;&lt;/font&gt;&lt;/font&gt;&lt;/font&gt;&lt;/font&gt;&lt;/font&gt;" style="whiteSpace=wrap;html=1;align=center;" parent="1" vertex="1">
          <mxGeometry x="232.5" y="500" width="80" height="30" as="geometry" />
        </mxCell>
        <mxCell id="evNd5tsoBMQe8YD3A1kR-24" value="&lt;font style=&quot;vertical-align: inherit;&quot;&gt;&lt;font style=&quot;vertical-align: inherit;&quot;&gt;&lt;font style=&quot;vertical-align: inherit;&quot;&gt;&lt;font style=&quot;vertical-align: inherit;&quot;&gt;&lt;font style=&quot;vertical-align: inherit;&quot;&gt;&lt;font style=&quot;vertical-align: inherit;&quot;&gt;Heladero&lt;/font&gt;&lt;/font&gt;&lt;/font&gt;&lt;/font&gt;&lt;/font&gt;&lt;/font&gt;" style="whiteSpace=wrap;html=1;align=center;" parent="1" vertex="1">
          <mxGeometry x="334" y="500" width="80" height="30" as="geometry" />
        </mxCell>
        <mxCell id="evNd5tsoBMQe8YD3A1kR-25" value="&lt;font style=&quot;vertical-align: inherit;&quot;&gt;&lt;font style=&quot;vertical-align: inherit;&quot;&gt;&lt;font style=&quot;vertical-align: inherit;&quot;&gt;&lt;font style=&quot;vertical-align: inherit;&quot;&gt;&lt;font style=&quot;vertical-align: inherit;&quot;&gt;&lt;font style=&quot;vertical-align: inherit;&quot;&gt;Chofer&lt;/font&gt;&lt;/font&gt;&lt;/font&gt;&lt;/font&gt;&lt;/font&gt;&lt;/font&gt;" style="whiteSpace=wrap;html=1;align=center;" parent="1" vertex="1">
          <mxGeometry x="436.25" y="500" width="80" height="30" as="geometry" />
        </mxCell>
        <mxCell id="evNd5tsoBMQe8YD3A1kR-26" value="&lt;font style=&quot;vertical-align: inherit;&quot;&gt;&lt;font style=&quot;vertical-align: inherit;&quot;&gt;&lt;font style=&quot;vertical-align: inherit;&quot;&gt;&lt;font style=&quot;vertical-align: inherit;&quot;&gt;&lt;font style=&quot;vertical-align: inherit;&quot;&gt;&lt;font style=&quot;vertical-align: inherit;&quot;&gt;&lt;font style=&quot;vertical-align: inherit;&quot;&gt;&lt;font style=&quot;vertical-align: inherit;&quot;&gt;Minorista&lt;/font&gt;&lt;/font&gt;&lt;/font&gt;&lt;/font&gt;&lt;/font&gt;&lt;/font&gt;&lt;/font&gt;&lt;/font&gt;" style="whiteSpace=wrap;html=1;align=center;" parent="1" vertex="1">
          <mxGeometry x="545" y="500" width="80" height="30" as="geometry" />
        </mxCell>
        <mxCell id="evNd5tsoBMQe8YD3A1kR-27" value="" style="endArrow=none;html=1;rounded=0;" parent="1" source="XzaRd1j-h2BiTwVMXHG0-11" target="evNd5tsoBMQe8YD3A1kR-23" edge="1">
          <mxGeometry relative="1" as="geometry">
            <mxPoint x="302.15999999999997" y="560" as="sourcePoint" />
            <mxPoint x="302.15999999999997" y="570" as="targetPoint" />
          </mxGeometry>
        </mxCell>
        <mxCell id="evNd5tsoBMQe8YD3A1kR-28" value="" style="endArrow=none;html=1;rounded=0;" parent="1" source="evNd5tsoBMQe8YD3A1kR-24" target="XzaRd1j-h2BiTwVMXHG0-11" edge="1">
          <mxGeometry relative="1" as="geometry">
            <mxPoint x="412.15999999999997" y="570" as="sourcePoint" />
            <mxPoint x="412.15999999999997" y="560" as="targetPoint" />
          </mxGeometry>
        </mxCell>
        <mxCell id="evNd5tsoBMQe8YD3A1kR-29" value="" style="endArrow=none;html=1;rounded=0;" parent="1" source="XzaRd1j-h2BiTwVMXHG0-11" target="evNd5tsoBMQe8YD3A1kR-25" edge="1">
          <mxGeometry relative="1" as="geometry">
            <mxPoint x="522.1600000000001" y="560" as="sourcePoint" />
            <mxPoint x="522.1600000000001" y="570" as="targetPoint" />
          </mxGeometry>
        </mxCell>
        <mxCell id="evNd5tsoBMQe8YD3A1kR-30" value="" style="endArrow=none;html=1;rounded=0;" parent="1" source="XzaRd1j-h2BiTwVMXHG0-13" target="evNd5tsoBMQe8YD3A1kR-26" edge="1">
          <mxGeometry relative="1" as="geometry">
            <mxPoint x="632.1600000000001" y="560" as="sourcePoint" />
            <mxPoint x="632.1600000000001" y="570" as="targetPoint" />
          </mxGeometry>
        </mxCell>
        <mxCell id="evNd5tsoBMQe8YD3A1kR-31" value="&lt;font style=&quot;vertical-align: inherit;&quot;&gt;&lt;font style=&quot;vertical-align: inherit;&quot;&gt;&lt;font style=&quot;vertical-align: inherit;&quot;&gt;&lt;font style=&quot;vertical-align: inherit;&quot;&gt;&lt;font style=&quot;vertical-align: inherit;&quot;&gt;&lt;font style=&quot;vertical-align: inherit;&quot;&gt;Encargan&lt;/font&gt;&lt;/font&gt;&lt;/font&gt;&lt;/font&gt;&lt;/font&gt;&lt;/font&gt;" style="shape=rhombus;perimeter=rhombusPerimeter;whiteSpace=wrap;html=1;align=center;" parent="1" vertex="1">
          <mxGeometry x="237.5" y="600" width="70" height="30" as="geometry" />
        </mxCell>
        <mxCell id="evNd5tsoBMQe8YD3A1kR-32" value="" style="endArrow=none;html=1;rounded=0;" parent="1" source="evNd5tsoBMQe8YD3A1kR-23" target="evNd5tsoBMQe8YD3A1kR-31" edge="1">
          <mxGeometry relative="1" as="geometry">
            <mxPoint x="382.5" y="540" as="sourcePoint" />
            <mxPoint x="542.5" y="540" as="targetPoint" />
          </mxGeometry>
        </mxCell>
        <mxCell id="evNd5tsoBMQe8YD3A1kR-34" value="&lt;font style=&quot;vertical-align: inherit;&quot;&gt;&lt;font style=&quot;vertical-align: inherit;&quot;&gt;&lt;font style=&quot;vertical-align: inherit;&quot;&gt;&lt;font style=&quot;vertical-align: inherit;&quot;&gt;&lt;font style=&quot;vertical-align: inherit;&quot;&gt;&lt;font style=&quot;vertical-align: inherit;&quot;&gt;&lt;font style=&quot;vertical-align: inherit;&quot;&gt;&lt;font style=&quot;vertical-align: inherit;&quot;&gt;Confecciona&lt;/font&gt;&lt;/font&gt;&lt;/font&gt;&lt;/font&gt;&lt;/font&gt;&lt;/font&gt;&lt;/font&gt;&lt;/font&gt;" style="shape=rhombus;perimeter=rhombusPerimeter;whiteSpace=wrap;html=1;align=center;" parent="1" vertex="1">
          <mxGeometry y="760" width="77.5" height="30" as="geometry" />
        </mxCell>
        <mxCell id="evNd5tsoBMQe8YD3A1kR-36" value="" style="endArrow=none;html=1;rounded=0;" parent="1" source="evNd5tsoBMQe8YD3A1kR-34" target="evNd5tsoBMQe8YD3A1kR-21" edge="1">
          <mxGeometry relative="1" as="geometry">
            <mxPoint x="382.5" y="540" as="sourcePoint" />
            <mxPoint x="542.5" y="540" as="targetPoint" />
            <Array as="points">
              <mxPoint x="40" y="630" />
              <mxPoint x="180" y="630" />
            </Array>
          </mxGeometry>
        </mxCell>
        <mxCell id="evNd5tsoBMQe8YD3A1kR-37" value="&lt;font style=&quot;vertical-align: inherit;&quot;&gt;&lt;font style=&quot;vertical-align: inherit;&quot;&gt;&lt;font style=&quot;vertical-align: inherit;&quot;&gt;&lt;font style=&quot;vertical-align: inherit;&quot;&gt;&lt;font style=&quot;vertical-align: inherit;&quot;&gt;&lt;font style=&quot;vertical-align: inherit;&quot;&gt;&lt;font style=&quot;vertical-align: inherit;&quot;&gt;&lt;font style=&quot;vertical-align: inherit;&quot;&gt;Fabrica&lt;/font&gt;&lt;/font&gt;&lt;/font&gt;&lt;/font&gt;&lt;/font&gt;&lt;/font&gt;&lt;/font&gt;&lt;/font&gt;" style="shape=rhombus;perimeter=rhombusPerimeter;whiteSpace=wrap;html=1;align=center;" parent="1" vertex="1">
          <mxGeometry x="342.5" y="600" width="70" height="30" as="geometry" />
        </mxCell>
        <mxCell id="evNd5tsoBMQe8YD3A1kR-38" value="&lt;font style=&quot;vertical-align: inherit;&quot;&gt;&lt;font style=&quot;vertical-align: inherit;&quot;&gt;&lt;font style=&quot;vertical-align: inherit;&quot;&gt;&lt;font style=&quot;vertical-align: inherit;&quot;&gt;&lt;font style=&quot;vertical-align: inherit;&quot;&gt;&lt;font style=&quot;vertical-align: inherit;&quot;&gt;&lt;font style=&quot;vertical-align: inherit;&quot;&gt;&lt;font style=&quot;vertical-align: inherit;&quot;&gt;Conduce&lt;/font&gt;&lt;/font&gt;&lt;/font&gt;&lt;/font&gt;&lt;/font&gt;&lt;/font&gt;&lt;/font&gt;&lt;/font&gt;" style="shape=rhombus;perimeter=rhombusPerimeter;whiteSpace=wrap;html=1;align=center;" parent="1" vertex="1">
          <mxGeometry x="590" y="760" width="70" height="30" as="geometry" />
        </mxCell>
        <mxCell id="evNd5tsoBMQe8YD3A1kR-39" value="&lt;font style=&quot;vertical-align: inherit;&quot;&gt;&lt;font style=&quot;vertical-align: inherit;&quot;&gt;&lt;font style=&quot;vertical-align: inherit;&quot;&gt;&lt;font style=&quot;vertical-align: inherit;&quot;&gt;&lt;font style=&quot;vertical-align: inherit;&quot;&gt;&lt;font style=&quot;vertical-align: inherit;&quot;&gt;&lt;font style=&quot;vertical-align: inherit;&quot;&gt;&lt;font style=&quot;vertical-align: inherit;&quot;&gt;Producto&lt;/font&gt;&lt;/font&gt;&lt;/font&gt;&lt;/font&gt;&lt;/font&gt;&lt;/font&gt;&lt;/font&gt;&lt;/font&gt;" style="whiteSpace=wrap;html=1;align=center;" parent="1" vertex="1">
          <mxGeometry x="354.5" y="710" width="80" height="30" as="geometry" />
        </mxCell>
        <mxCell id="evNd5tsoBMQe8YD3A1kR-40" value="&lt;font style=&quot;vertical-align: inherit;&quot;&gt;&lt;font style=&quot;vertical-align: inherit;&quot;&gt;&lt;font style=&quot;vertical-align: inherit;&quot;&gt;&lt;font style=&quot;vertical-align: inherit;&quot;&gt;&lt;font style=&quot;vertical-align: inherit;&quot;&gt;&lt;font style=&quot;vertical-align: inherit;&quot;&gt;&lt;font style=&quot;vertical-align: inherit;&quot;&gt;&lt;font style=&quot;vertical-align: inherit;&quot;&gt;Proveedor&lt;/font&gt;&lt;/font&gt;&lt;/font&gt;&lt;/font&gt;&lt;/font&gt;&lt;/font&gt;&lt;/font&gt;&lt;/font&gt;" style="whiteSpace=wrap;html=1;align=center;" parent="1" vertex="1">
          <mxGeometry x="206.5" y="710" width="80" height="30" as="geometry" />
        </mxCell>
        <mxCell id="evNd5tsoBMQe8YD3A1kR-41" value="&lt;font style=&quot;vertical-align: inherit;&quot;&gt;&lt;font style=&quot;vertical-align: inherit;&quot;&gt;&lt;font style=&quot;vertical-align: inherit;&quot;&gt;&lt;font style=&quot;vertical-align: inherit;&quot;&gt;&lt;font style=&quot;vertical-align: inherit;&quot;&gt;&lt;font style=&quot;vertical-align: inherit;&quot;&gt;&lt;font style=&quot;vertical-align: inherit;&quot;&gt;&lt;font style=&quot;vertical-align: inherit;&quot;&gt;Pedido&lt;/font&gt;&lt;/font&gt;&lt;/font&gt;&lt;/font&gt;&lt;/font&gt;&lt;/font&gt;&lt;/font&gt;&lt;/font&gt;" style="whiteSpace=wrap;html=1;align=center;" parent="1" vertex="1">
          <mxGeometry x="109.5" y="926" width="80" height="30" as="geometry" />
        </mxCell>
        <mxCell id="evNd5tsoBMQe8YD3A1kR-42" value="&lt;font style=&quot;vertical-align: inherit;&quot;&gt;&lt;font style=&quot;vertical-align: inherit;&quot;&gt;&lt;font style=&quot;vertical-align: inherit;&quot;&gt;&lt;font style=&quot;vertical-align: inherit;&quot;&gt;&lt;font style=&quot;vertical-align: inherit;&quot;&gt;&lt;font style=&quot;vertical-align: inherit;&quot;&gt;&lt;font style=&quot;vertical-align: inherit;&quot;&gt;&lt;font style=&quot;vertical-align: inherit;&quot;&gt;&lt;font style=&quot;vertical-align: inherit;&quot;&gt;&lt;font style=&quot;vertical-align: inherit;&quot;&gt;Receta&lt;/font&gt;&lt;/font&gt;&lt;/font&gt;&lt;/font&gt;&lt;/font&gt;&lt;/font&gt;&lt;/font&gt;&lt;/font&gt;&lt;/font&gt;&lt;/font&gt;" style="whiteSpace=wrap;html=1;align=center;" parent="1" vertex="1">
          <mxGeometry x="391" y="840" width="80" height="30" as="geometry" />
        </mxCell>
        <mxCell id="evNd5tsoBMQe8YD3A1kR-43" value="&lt;font style=&quot;vertical-align: inherit;&quot;&gt;&lt;font style=&quot;vertical-align: inherit;&quot;&gt;&lt;font style=&quot;vertical-align: inherit;&quot;&gt;&lt;font style=&quot;vertical-align: inherit;&quot;&gt;&lt;font style=&quot;vertical-align: inherit;&quot;&gt;&lt;font style=&quot;vertical-align: inherit;&quot;&gt;&lt;font style=&quot;vertical-align: inherit;&quot;&gt;&lt;font style=&quot;vertical-align: inherit;&quot;&gt;&lt;font style=&quot;vertical-align: inherit;&quot;&gt;&lt;font style=&quot;vertical-align: inherit;&quot;&gt;Contiene&lt;/font&gt;&lt;/font&gt;&lt;/font&gt;&lt;/font&gt;&lt;/font&gt;&lt;/font&gt;&lt;/font&gt;&lt;/font&gt;&lt;/font&gt;&lt;/font&gt;" style="shape=rhombus;perimeter=rhombusPerimeter;whiteSpace=wrap;html=1;align=center;" parent="1" vertex="1">
          <mxGeometry x="347" y="780" width="70" height="30" as="geometry" />
        </mxCell>
        <mxCell id="evNd5tsoBMQe8YD3A1kR-44" value="" style="endArrow=none;html=1;rounded=0;" parent="1" source="evNd5tsoBMQe8YD3A1kR-37" target="evNd5tsoBMQe8YD3A1kR-24" edge="1">
          <mxGeometry relative="1" as="geometry">
            <mxPoint x="382.5" y="680" as="sourcePoint" />
            <mxPoint x="542.5" y="680" as="targetPoint" />
          </mxGeometry>
        </mxCell>
        <mxCell id="evNd5tsoBMQe8YD3A1kR-45" value="" style="endArrow=none;html=1;rounded=0;" parent="1" source="evNd5tsoBMQe8YD3A1kR-37" target="evNd5tsoBMQe8YD3A1kR-39" edge="1">
          <mxGeometry relative="1" as="geometry">
            <mxPoint x="382.5" y="630" as="sourcePoint" />
            <mxPoint x="542.5" y="630" as="targetPoint" />
          </mxGeometry>
        </mxCell>
        <mxCell id="evNd5tsoBMQe8YD3A1kR-46" value="" style="endArrow=none;html=1;rounded=0;" parent="1" source="evNd5tsoBMQe8YD3A1kR-25" target="evNd5tsoBMQe8YD3A1kR-38" edge="1">
          <mxGeometry relative="1" as="geometry">
            <mxPoint x="382.5" y="680" as="sourcePoint" />
            <mxPoint x="542.5" y="680" as="targetPoint" />
            <Array as="points">
              <mxPoint x="476" y="630" />
              <mxPoint x="625" y="630" />
            </Array>
          </mxGeometry>
        </mxCell>
        <mxCell id="evNd5tsoBMQe8YD3A1kR-47" value="" style="endArrow=none;html=1;rounded=0;" parent="1" source="evNd5tsoBMQe8YD3A1kR-31" target="evNd5tsoBMQe8YD3A1kR-40" edge="1">
          <mxGeometry relative="1" as="geometry">
            <mxPoint x="382.5" y="630" as="sourcePoint" />
            <mxPoint x="542.5" y="630" as="targetPoint" />
          </mxGeometry>
        </mxCell>
        <mxCell id="evNd5tsoBMQe8YD3A1kR-48" value="" style="endArrow=none;html=1;rounded=0;entryX=0;entryY=0.25;entryDx=0;entryDy=0;" parent="1" target="evNd5tsoBMQe8YD3A1kR-41" edge="1">
          <mxGeometry relative="1" as="geometry">
            <mxPoint x="38.83701347305396" y="792.9663173652696" as="sourcePoint" />
            <mxPoint x="156.5" y="1000.5" as="targetPoint" />
            <Array as="points">
              <mxPoint x="40" y="934" />
            </Array>
          </mxGeometry>
        </mxCell>
        <mxCell id="evNd5tsoBMQe8YD3A1kR-49" value="" style="endArrow=none;html=1;rounded=0;" parent="1" source="evNd5tsoBMQe8YD3A1kR-39" target="evNd5tsoBMQe8YD3A1kR-43" edge="1">
          <mxGeometry relative="1" as="geometry">
            <mxPoint x="351.5" y="550" as="sourcePoint" />
            <mxPoint x="511.5" y="550" as="targetPoint" />
          </mxGeometry>
        </mxCell>
        <mxCell id="evNd5tsoBMQe8YD3A1kR-50" value="" style="endArrow=none;html=1;rounded=0;" parent="1" source="evNd5tsoBMQe8YD3A1kR-42" target="evNd5tsoBMQe8YD3A1kR-43" edge="1">
          <mxGeometry relative="1" as="geometry">
            <mxPoint x="352" y="690" as="sourcePoint" />
            <mxPoint x="512" y="690" as="targetPoint" />
          </mxGeometry>
        </mxCell>
        <mxCell id="evNd5tsoBMQe8YD3A1kR-51" value="&lt;font style=&quot;vertical-align: inherit;&quot;&gt;&lt;font style=&quot;vertical-align: inherit;&quot;&gt;&lt;font style=&quot;vertical-align: inherit;&quot;&gt;&lt;font style=&quot;vertical-align: inherit;&quot;&gt;&lt;font style=&quot;vertical-align: inherit;&quot;&gt;&lt;font style=&quot;vertical-align: inherit;&quot;&gt;&lt;font style=&quot;vertical-align: inherit;&quot;&gt;&lt;font style=&quot;vertical-align: inherit;&quot;&gt;&lt;font style=&quot;vertical-align: inherit;&quot;&gt;&lt;font style=&quot;vertical-align: inherit;&quot;&gt;&lt;font style=&quot;vertical-align: inherit;&quot;&gt;&lt;font style=&quot;vertical-align: inherit;&quot;&gt;Provee&lt;/font&gt;&lt;/font&gt;&lt;/font&gt;&lt;/font&gt;&lt;/font&gt;&lt;/font&gt;&lt;/font&gt;&lt;/font&gt;&lt;/font&gt;&lt;/font&gt;&lt;/font&gt;&lt;/font&gt;" style="shape=rhombus;perimeter=rhombusPerimeter;whiteSpace=wrap;html=1;align=center;" parent="1" vertex="1">
          <mxGeometry x="212.5" y="780" width="70" height="30" as="geometry" />
        </mxCell>
        <mxCell id="evNd5tsoBMQe8YD3A1kR-53" value="&lt;font style=&quot;vertical-align: inherit;&quot;&gt;&lt;font style=&quot;vertical-align: inherit;&quot;&gt;&lt;font style=&quot;vertical-align: inherit;&quot;&gt;&lt;font style=&quot;vertical-align: inherit;&quot;&gt;&lt;font style=&quot;vertical-align: inherit;&quot;&gt;&lt;font style=&quot;vertical-align: inherit;&quot;&gt;&lt;font style=&quot;vertical-align: inherit;&quot;&gt;&lt;font style=&quot;vertical-align: inherit;&quot;&gt;&lt;font style=&quot;vertical-align: inherit;&quot;&gt;&lt;font style=&quot;vertical-align: inherit;&quot;&gt;Ingrediente&lt;/font&gt;&lt;/font&gt;&lt;/font&gt;&lt;/font&gt;&lt;/font&gt;&lt;/font&gt;&lt;/font&gt;&lt;/font&gt;&lt;/font&gt;&lt;/font&gt;" style="whiteSpace=wrap;html=1;align=center;" parent="1" vertex="1">
          <mxGeometry x="157" y="840" width="80" height="30" as="geometry" />
        </mxCell>
        <mxCell id="evNd5tsoBMQe8YD3A1kR-54" value="" style="endArrow=none;html=1;rounded=0;" parent="1" source="evNd5tsoBMQe8YD3A1kR-40" target="evNd5tsoBMQe8YD3A1kR-51" edge="1">
          <mxGeometry relative="1" as="geometry">
            <mxPoint x="351.5" y="620" as="sourcePoint" />
            <mxPoint x="511.5" y="620" as="targetPoint" />
          </mxGeometry>
        </mxCell>
        <mxCell id="evNd5tsoBMQe8YD3A1kR-55" value="" style="endArrow=none;html=1;rounded=0;" parent="1" source="evNd5tsoBMQe8YD3A1kR-51" target="evNd5tsoBMQe8YD3A1kR-53" edge="1">
          <mxGeometry relative="1" as="geometry">
            <mxPoint x="352" y="760" as="sourcePoint" />
            <mxPoint x="512" y="760" as="targetPoint" />
          </mxGeometry>
        </mxCell>
        <mxCell id="evNd5tsoBMQe8YD3A1kR-56" value="" style="endArrow=none;html=1;rounded=0;" parent="1" source="evNd5tsoBMQe8YD3A1kR-53" target="evNd5tsoBMQe8YD3A1kR-57" edge="1">
          <mxGeometry relative="1" as="geometry">
            <mxPoint x="352" y="760" as="sourcePoint" />
            <mxPoint x="272" y="855" as="targetPoint" />
          </mxGeometry>
        </mxCell>
        <mxCell id="evNd5tsoBMQe8YD3A1kR-57" value="&lt;font style=&quot;vertical-align: inherit;&quot;&gt;&lt;font style=&quot;vertical-align: inherit;&quot;&gt;&lt;font style=&quot;vertical-align: inherit;&quot;&gt;&lt;font style=&quot;vertical-align: inherit;&quot;&gt;&lt;font style=&quot;vertical-align: inherit;&quot;&gt;&lt;font style=&quot;vertical-align: inherit;&quot;&gt;&lt;font style=&quot;vertical-align: inherit;&quot;&gt;&lt;font style=&quot;vertical-align: inherit;&quot;&gt;&lt;font style=&quot;vertical-align: inherit;&quot;&gt;&lt;font style=&quot;vertical-align: inherit;&quot;&gt;&lt;font style=&quot;vertical-align: inherit;&quot;&gt;&lt;font style=&quot;vertical-align: inherit;&quot;&gt;&lt;font style=&quot;vertical-align: inherit;&quot;&gt;&lt;font style=&quot;vertical-align: inherit;&quot;&gt;Se compone&lt;/font&gt;&lt;/font&gt;&lt;/font&gt;&lt;/font&gt;&lt;/font&gt;&lt;/font&gt;&lt;/font&gt;&lt;/font&gt;&lt;/font&gt;&lt;/font&gt;&lt;/font&gt;&lt;/font&gt;&lt;/font&gt;&lt;/font&gt;" style="shape=rhombus;perimeter=rhombusPerimeter;whiteSpace=wrap;html=1;align=center;" parent="1" vertex="1">
          <mxGeometry x="272" y="835" width="80" height="40" as="geometry" />
        </mxCell>
        <mxCell id="evNd5tsoBMQe8YD3A1kR-58" value="" style="endArrow=none;html=1;rounded=0;" parent="1" source="evNd5tsoBMQe8YD3A1kR-57" target="evNd5tsoBMQe8YD3A1kR-42" edge="1">
          <mxGeometry relative="1" as="geometry">
            <mxPoint x="387" y="760" as="sourcePoint" />
            <mxPoint x="547" y="760" as="targetPoint" />
          </mxGeometry>
        </mxCell>
        <mxCell id="evNd5tsoBMQe8YD3A1kR-60" value="&lt;font style=&quot;vertical-align: inherit;&quot;&gt;&lt;font style=&quot;vertical-align: inherit;&quot;&gt;&lt;font style=&quot;vertical-align: inherit;&quot;&gt;&lt;font style=&quot;vertical-align: inherit;&quot;&gt;&lt;font style=&quot;vertical-align: inherit;&quot;&gt;&lt;font style=&quot;vertical-align: inherit;&quot;&gt;&lt;font style=&quot;vertical-align: inherit;&quot;&gt;&lt;font style=&quot;vertical-align: inherit;&quot;&gt;&lt;font style=&quot;vertical-align: inherit;&quot;&gt;&lt;font style=&quot;vertical-align: inherit;&quot;&gt;&lt;font style=&quot;vertical-align: inherit;&quot;&gt;&lt;font style=&quot;vertical-align: inherit;&quot;&gt;&lt;font style=&quot;vertical-align: inherit;&quot;&gt;&lt;font style=&quot;vertical-align: inherit;&quot;&gt;&lt;font style=&quot;vertical-align: inherit;&quot;&gt;&lt;font style=&quot;vertical-align: inherit;&quot;&gt;Genera&lt;/font&gt;&lt;/font&gt;&lt;/font&gt;&lt;/font&gt;&lt;/font&gt;&lt;/font&gt;&lt;/font&gt;&lt;/font&gt;&lt;/font&gt;&lt;/font&gt;&lt;/font&gt;&lt;/font&gt;&lt;/font&gt;&lt;/font&gt;&lt;/font&gt;&lt;/font&gt;" style="shape=rhombus;perimeter=rhombusPerimeter;whiteSpace=wrap;html=1;align=center;" parent="1" vertex="1">
          <mxGeometry x="-63" y="660" width="85" height="30" as="geometry" />
        </mxCell>
        <mxCell id="evNd5tsoBMQe8YD3A1kR-61" value="" style="endArrow=none;html=1;rounded=0;" parent="1" source="evNd5tsoBMQe8YD3A1kR-41" target="evNd5tsoBMQe8YD3A1kR-60" edge="1">
          <mxGeometry relative="1" as="geometry">
            <mxPoint x="132.5" y="773.0487804878048" as="sourcePoint" />
            <mxPoint x="-20" y="730" as="targetPoint" />
            <Array as="points">
              <mxPoint x="-20" y="941" />
            </Array>
          </mxGeometry>
        </mxCell>
        <mxCell id="evNd5tsoBMQe8YD3A1kR-65" value="&lt;font style=&quot;vertical-align: inherit;&quot;&gt;&lt;font style=&quot;vertical-align: inherit;&quot;&gt;&lt;font style=&quot;vertical-align: inherit;&quot;&gt;&lt;font style=&quot;vertical-align: inherit;&quot;&gt;&lt;font style=&quot;vertical-align: inherit;&quot;&gt;&lt;font style=&quot;vertical-align: inherit;&quot;&gt;&lt;font style=&quot;vertical-align: inherit;&quot;&gt;&lt;font style=&quot;vertical-align: inherit;&quot;&gt;&lt;font style=&quot;vertical-align: inherit;&quot;&gt;&lt;font style=&quot;vertical-align: inherit;&quot;&gt;Vehiculo&lt;/font&gt;&lt;/font&gt;&lt;/font&gt;&lt;/font&gt;&lt;/font&gt;&lt;/font&gt;&lt;/font&gt;&lt;/font&gt;&lt;/font&gt;&lt;/font&gt;" style="whiteSpace=wrap;html=1;align=center;" parent="1" vertex="1">
          <mxGeometry x="459" y="926" width="80" height="30" as="geometry" />
        </mxCell>
        <mxCell id="evNd5tsoBMQe8YD3A1kR-66" value="" style="endArrow=none;html=1;rounded=0;" parent="1" source="evNd5tsoBMQe8YD3A1kR-65" target="evNd5tsoBMQe8YD3A1kR-38" edge="1">
          <mxGeometry relative="1" as="geometry">
            <mxPoint x="192.5" y="590" as="sourcePoint" />
            <mxPoint x="352.5" y="590" as="targetPoint" />
            <Array as="points">
              <mxPoint x="630" y="941" />
            </Array>
          </mxGeometry>
        </mxCell>
        <mxCell id="evNd5tsoBMQe8YD3A1kR-67" value="" style="endArrow=none;html=1;rounded=0;" parent="1" source="evNd5tsoBMQe8YD3A1kR-41" target="evNd5tsoBMQe8YD3A1kR-69" edge="1">
          <mxGeometry relative="1" as="geometry">
            <mxPoint x="121" y="676" as="sourcePoint" />
            <mxPoint x="191" y="676" as="targetPoint" />
          </mxGeometry>
        </mxCell>
        <mxCell id="evNd5tsoBMQe8YD3A1kR-69" value="&lt;font style=&quot;vertical-align: inherit;&quot;&gt;&lt;font style=&quot;vertical-align: inherit;&quot;&gt;&lt;font style=&quot;vertical-align: inherit;&quot;&gt;&lt;font style=&quot;vertical-align: inherit;&quot;&gt;&lt;font style=&quot;vertical-align: inherit;&quot;&gt;&lt;font style=&quot;vertical-align: inherit;&quot;&gt;&lt;font style=&quot;vertical-align: inherit;&quot;&gt;&lt;font style=&quot;vertical-align: inherit;&quot;&gt;&lt;font style=&quot;vertical-align: inherit;&quot;&gt;&lt;font style=&quot;vertical-align: inherit;&quot;&gt;&lt;font style=&quot;vertical-align: inherit;&quot;&gt;&lt;font style=&quot;vertical-align: inherit;&quot;&gt;&lt;font style=&quot;vertical-align: inherit;&quot;&gt;&lt;font style=&quot;vertical-align: inherit;&quot;&gt;Reparte&lt;/font&gt;&lt;/font&gt;&lt;/font&gt;&lt;/font&gt;&lt;/font&gt;&lt;/font&gt;&lt;/font&gt;&lt;/font&gt;&lt;/font&gt;&lt;/font&gt;&lt;/font&gt;&lt;/font&gt;&lt;/font&gt;&lt;/font&gt;" style="shape=rhombus;perimeter=rhombusPerimeter;whiteSpace=wrap;html=1;align=center;" parent="1" vertex="1">
          <mxGeometry x="260.5" y="926" width="70" height="30" as="geometry" />
        </mxCell>
        <mxCell id="evNd5tsoBMQe8YD3A1kR-70" value="" style="endArrow=none;html=1;rounded=0;" parent="1" source="evNd5tsoBMQe8YD3A1kR-69" target="evNd5tsoBMQe8YD3A1kR-65" edge="1">
          <mxGeometry relative="1" as="geometry">
            <mxPoint x="261" y="621" as="sourcePoint" />
            <mxPoint x="421" y="621" as="targetPoint" />
          </mxGeometry>
        </mxCell>
        <mxCell id="JgR8hPMslYkNpSHdRMmN-1" value="&lt;font style=&quot;vertical-align: inherit;&quot;&gt;&lt;font style=&quot;vertical-align: inherit;&quot;&gt;Telefono&lt;/font&gt;&lt;/font&gt;" style="ellipse;whiteSpace=wrap;html=1;align=center;" parent="1" vertex="1">
          <mxGeometry x="192.5" y="60" width="50" height="20" as="geometry" />
        </mxCell>
        <mxCell id="JgR8hPMslYkNpSHdRMmN-2" value="&lt;font style=&quot;vertical-align: inherit;&quot;&gt;&lt;font style=&quot;vertical-align: inherit;&quot;&gt;&lt;font style=&quot;vertical-align: inherit;&quot;&gt;&lt;font style=&quot;vertical-align: inherit;&quot;&gt;Nombre&lt;/font&gt;&lt;/font&gt;&lt;/font&gt;&lt;/font&gt;" style="ellipse;whiteSpace=wrap;html=1;align=center;" parent="1" vertex="1">
          <mxGeometry x="182.5" y="135" width="50" height="20" as="geometry" />
        </mxCell>
        <mxCell id="JgR8hPMslYkNpSHdRMmN-3" value="&lt;font style=&quot;vertical-align: inherit;&quot;&gt;&lt;font style=&quot;vertical-align: inherit;&quot;&gt;&lt;font style=&quot;vertical-align: inherit;&quot;&gt;&lt;font style=&quot;vertical-align: inherit;&quot;&gt;Ciudad&lt;/font&gt;&lt;/font&gt;&lt;/font&gt;&lt;/font&gt;" style="ellipse;whiteSpace=wrap;html=1;align=center;" parent="1" vertex="1">
          <mxGeometry x="242.5" y="160" width="50" height="20" as="geometry" />
        </mxCell>
        <mxCell id="JgR8hPMslYkNpSHdRMmN-4" value="&lt;font style=&quot;vertical-align: inherit;&quot;&gt;&lt;font style=&quot;vertical-align: inherit;&quot;&gt;&lt;font style=&quot;vertical-align: inherit;&quot;&gt;&lt;font style=&quot;vertical-align: inherit;&quot;&gt;UbicaciÃ³n&lt;/font&gt;&lt;/font&gt;&lt;/font&gt;&lt;/font&gt;" style="ellipse;whiteSpace=wrap;html=1;align=center;" parent="1" vertex="1">
          <mxGeometry x="152.5" y="95" width="60" height="20" as="geometry" />
        </mxCell>
        <mxCell id="JgR8hPMslYkNpSHdRMmN-5" value="&lt;font style=&quot;vertical-align: inherit;&quot;&gt;&lt;font style=&quot;vertical-align: inherit;&quot;&gt;&lt;font style=&quot;vertical-align: inherit;&quot;&gt;&lt;font style=&quot;vertical-align: inherit;&quot;&gt;&lt;font style=&quot;vertical-align: inherit;&quot;&gt;&lt;font style=&quot;vertical-align: inherit;&quot;&gt;&lt;u&gt;Cod_fabrica&lt;/u&gt;&lt;/font&gt;&lt;/font&gt;&lt;/font&gt;&lt;/font&gt;&lt;/font&gt;&lt;/font&gt;" style="ellipse;whiteSpace=wrap;html=1;align=center;" parent="1" vertex="1">
          <mxGeometry x="272.5" y="50" width="70" height="20" as="geometry" />
        </mxCell>
        <mxCell id="JgR8hPMslYkNpSHdRMmN-6" value="" style="endArrow=none;html=1;rounded=0;" parent="1" source="JgR8hPMslYkNpSHdRMmN-5" target="evNd5tsoBMQe8YD3A1kR-1" edge="1">
          <mxGeometry relative="1" as="geometry">
            <mxPoint x="362.5" y="250" as="sourcePoint" />
            <mxPoint x="522.5" y="250" as="targetPoint" />
          </mxGeometry>
        </mxCell>
        <mxCell id="JgR8hPMslYkNpSHdRMmN-7" value="" style="endArrow=none;html=1;rounded=0;" parent="1" source="JgR8hPMslYkNpSHdRMmN-1" target="evNd5tsoBMQe8YD3A1kR-1" edge="1">
          <mxGeometry relative="1" as="geometry">
            <mxPoint x="362.5" y="250" as="sourcePoint" />
            <mxPoint x="522.5" y="250" as="targetPoint" />
          </mxGeometry>
        </mxCell>
        <mxCell id="JgR8hPMslYkNpSHdRMmN-8" value="" style="endArrow=none;html=1;rounded=0;" parent="1" source="JgR8hPMslYkNpSHdRMmN-4" target="evNd5tsoBMQe8YD3A1kR-1" edge="1">
          <mxGeometry relative="1" as="geometry">
            <mxPoint x="362.5" y="250" as="sourcePoint" />
            <mxPoint x="522.5" y="250" as="targetPoint" />
          </mxGeometry>
        </mxCell>
        <mxCell id="JgR8hPMslYkNpSHdRMmN-9" value="" style="endArrow=none;html=1;rounded=0;" parent="1" source="JgR8hPMslYkNpSHdRMmN-2" target="evNd5tsoBMQe8YD3A1kR-1" edge="1">
          <mxGeometry relative="1" as="geometry">
            <mxPoint x="362.5" y="250" as="sourcePoint" />
            <mxPoint x="522.5" y="250" as="targetPoint" />
          </mxGeometry>
        </mxCell>
        <mxCell id="JgR8hPMslYkNpSHdRMmN-10" value="" style="endArrow=none;html=1;rounded=0;" parent="1" source="evNd5tsoBMQe8YD3A1kR-1" target="JgR8hPMslYkNpSHdRMmN-3" edge="1">
          <mxGeometry relative="1" as="geometry">
            <mxPoint x="362.5" y="250" as="sourcePoint" />
            <mxPoint x="522.5" y="250" as="targetPoint" />
          </mxGeometry>
        </mxCell>
        <mxCell id="JgR8hPMslYkNpSHdRMmN-11" value="&lt;font style=&quot;vertical-align: inherit;&quot;&gt;&lt;font style=&quot;vertical-align: inherit;&quot;&gt;&lt;font style=&quot;vertical-align: inherit;&quot;&gt;&lt;font style=&quot;vertical-align: inherit;&quot;&gt;&lt;font style=&quot;vertical-align: inherit;&quot;&gt;&lt;font style=&quot;vertical-align: inherit;&quot;&gt;Ciudad&lt;/font&gt;&lt;/font&gt;&lt;/font&gt;&lt;/font&gt;&lt;/font&gt;&lt;/font&gt;" style="ellipse;whiteSpace=wrap;html=1;align=center;" parent="1" vertex="1">
          <mxGeometry x="692.5" y="160" width="50" height="20" as="geometry" />
        </mxCell>
        <mxCell id="JgR8hPMslYkNpSHdRMmN-12" value="&lt;font style=&quot;vertical-align: inherit;&quot;&gt;&lt;font style=&quot;vertical-align: inherit;&quot;&gt;&lt;font style=&quot;vertical-align: inherit;&quot;&gt;&lt;font style=&quot;vertical-align: inherit;&quot;&gt;&lt;font style=&quot;vertical-align: inherit;&quot;&gt;&lt;font style=&quot;vertical-align: inherit;&quot;&gt;&lt;font style=&quot;vertical-align: inherit;&quot;&gt;&lt;font style=&quot;vertical-align: inherit;&quot;&gt;UbicaciÃ³n&lt;/font&gt;&lt;/font&gt;&lt;/font&gt;&lt;/font&gt;&lt;/font&gt;&lt;/font&gt;&lt;/font&gt;&lt;/font&gt;" style="ellipse;whiteSpace=wrap;html=1;align=center;" parent="1" vertex="1">
          <mxGeometry x="735" y="130" width="60" height="20" as="geometry" />
        </mxCell>
        <mxCell id="JgR8hPMslYkNpSHdRMmN-13" value="&lt;font style=&quot;vertical-align: inherit;&quot;&gt;&lt;font style=&quot;vertical-align: inherit;&quot;&gt;&lt;font style=&quot;vertical-align: inherit;&quot;&gt;&lt;font style=&quot;vertical-align: inherit;&quot;&gt;&lt;font style=&quot;vertical-align: inherit;&quot;&gt;&lt;font style=&quot;vertical-align: inherit;&quot;&gt;&lt;font style=&quot;vertical-align: inherit;&quot;&gt;&lt;font style=&quot;vertical-align: inherit;&quot;&gt;Nombre&lt;/font&gt;&lt;/font&gt;&lt;/font&gt;&lt;/font&gt;&lt;/font&gt;&lt;/font&gt;&lt;/font&gt;&lt;/font&gt;" style="ellipse;whiteSpace=wrap;html=1;align=center;" parent="1" vertex="1">
          <mxGeometry x="740" y="95" width="50" height="20" as="geometry" />
        </mxCell>
        <mxCell id="JgR8hPMslYkNpSHdRMmN-14" value="&lt;font style=&quot;vertical-align: inherit;&quot;&gt;&lt;font style=&quot;vertical-align: inherit;&quot;&gt;&lt;font style=&quot;vertical-align: inherit;&quot;&gt;&lt;font style=&quot;vertical-align: inherit;&quot;&gt;&lt;font style=&quot;vertical-align: inherit;&quot;&gt;&lt;font style=&quot;vertical-align: inherit;&quot;&gt;&lt;font style=&quot;vertical-align: inherit;&quot;&gt;&lt;font style=&quot;vertical-align: inherit;&quot;&gt;Telefono&lt;/font&gt;&lt;/font&gt;&lt;/font&gt;&lt;/font&gt;&lt;/font&gt;&lt;/font&gt;&lt;/font&gt;&lt;/font&gt;" style="ellipse;whiteSpace=wrap;html=1;align=center;" parent="1" vertex="1">
          <mxGeometry x="707.5" y="70" width="50" height="20" as="geometry" />
        </mxCell>
        <mxCell id="JgR8hPMslYkNpSHdRMmN-15" value="&lt;font style=&quot;vertical-align: inherit;&quot;&gt;&lt;font style=&quot;vertical-align: inherit;&quot;&gt;&lt;font style=&quot;vertical-align: inherit;&quot;&gt;&lt;font style=&quot;vertical-align: inherit;&quot;&gt;&lt;font style=&quot;vertical-align: inherit;&quot;&gt;&lt;font style=&quot;vertical-align: inherit;&quot;&gt;&lt;font style=&quot;vertical-align: inherit;&quot;&gt;&lt;font style=&quot;vertical-align: inherit;&quot;&gt;&lt;u&gt;Cod_sucursal&lt;/u&gt;&lt;/font&gt;&lt;/font&gt;&lt;/font&gt;&lt;/font&gt;&lt;/font&gt;&lt;/font&gt;&lt;/font&gt;&lt;/font&gt;" style="ellipse;whiteSpace=wrap;html=1;align=center;" parent="1" vertex="1">
          <mxGeometry x="622.5" y="60" width="80" height="20" as="geometry" />
        </mxCell>
        <mxCell id="JgR8hPMslYkNpSHdRMmN-16" value="" style="endArrow=none;html=1;rounded=0;" parent="1" source="JgR8hPMslYkNpSHdRMmN-11" target="evNd5tsoBMQe8YD3A1kR-2" edge="1">
          <mxGeometry relative="1" as="geometry">
            <mxPoint x="662.5" y="150" as="sourcePoint" />
            <mxPoint x="522.5" y="250" as="targetPoint" />
          </mxGeometry>
        </mxCell>
        <mxCell id="JgR8hPMslYkNpSHdRMmN-17" value="" style="endArrow=none;html=1;rounded=0;" parent="1" source="JgR8hPMslYkNpSHdRMmN-12" target="evNd5tsoBMQe8YD3A1kR-2" edge="1">
          <mxGeometry relative="1" as="geometry">
            <mxPoint x="362.5" y="250" as="sourcePoint" />
            <mxPoint x="522.5" y="250" as="targetPoint" />
          </mxGeometry>
        </mxCell>
        <mxCell id="JgR8hPMslYkNpSHdRMmN-18" value="" style="endArrow=none;html=1;rounded=0;" parent="1" source="JgR8hPMslYkNpSHdRMmN-13" target="evNd5tsoBMQe8YD3A1kR-2" edge="1">
          <mxGeometry relative="1" as="geometry">
            <mxPoint x="362.5" y="250" as="sourcePoint" />
            <mxPoint x="522.5" y="250" as="targetPoint" />
          </mxGeometry>
        </mxCell>
        <mxCell id="JgR8hPMslYkNpSHdRMmN-19" value="" style="endArrow=none;html=1;rounded=0;" parent="1" source="evNd5tsoBMQe8YD3A1kR-2" target="JgR8hPMslYkNpSHdRMmN-14" edge="1">
          <mxGeometry relative="1" as="geometry">
            <mxPoint x="362.5" y="250" as="sourcePoint" />
            <mxPoint x="522.5" y="250" as="targetPoint" />
          </mxGeometry>
        </mxCell>
        <mxCell id="JgR8hPMslYkNpSHdRMmN-20" value="" style="endArrow=none;html=1;rounded=0;" parent="1" source="evNd5tsoBMQe8YD3A1kR-2" target="JgR8hPMslYkNpSHdRMmN-15" edge="1">
          <mxGeometry relative="1" as="geometry">
            <mxPoint x="362.5" y="250" as="sourcePoint" />
            <mxPoint x="522.5" y="250" as="targetPoint" />
          </mxGeometry>
        </mxCell>
        <mxCell id="JgR8hPMslYkNpSHdRMmN-21" value="&lt;font style=&quot;vertical-align: inherit;&quot;&gt;&lt;font style=&quot;vertical-align: inherit;&quot;&gt;&lt;font style=&quot;vertical-align: inherit;&quot;&gt;&lt;font style=&quot;vertical-align: inherit;&quot;&gt;&lt;font style=&quot;vertical-align: inherit;&quot;&gt;&lt;font style=&quot;vertical-align: inherit;&quot;&gt;Nombre&lt;/font&gt;&lt;/font&gt;&lt;/font&gt;&lt;/font&gt;&lt;/font&gt;&lt;/font&gt;" style="ellipse;whiteSpace=wrap;html=1;align=center;" parent="1" vertex="1">
          <mxGeometry x="536.75" y="260" width="50" height="20" as="geometry" />
        </mxCell>
        <mxCell id="JgR8hPMslYkNpSHdRMmN-22" value="&lt;font style=&quot;vertical-align: inherit;&quot;&gt;&lt;font style=&quot;vertical-align: inherit;&quot;&gt;&lt;font style=&quot;vertical-align: inherit;&quot;&gt;&lt;font style=&quot;vertical-align: inherit;&quot;&gt;&lt;font style=&quot;vertical-align: inherit;&quot;&gt;&lt;font style=&quot;vertical-align: inherit;&quot;&gt;Apellido&lt;/font&gt;&lt;/font&gt;&lt;/font&gt;&lt;/font&gt;&lt;/font&gt;&lt;/font&gt;" style="ellipse;whiteSpace=wrap;html=1;align=center;" parent="1" vertex="1">
          <mxGeometry x="354.5" y="302.42" width="50" height="20" as="geometry" />
        </mxCell>
        <mxCell id="JgR8hPMslYkNpSHdRMmN-25" value="&lt;font style=&quot;vertical-align: inherit;&quot;&gt;&lt;font style=&quot;vertical-align: inherit;&quot;&gt;&lt;font style=&quot;vertical-align: inherit;&quot;&gt;&lt;font style=&quot;vertical-align: inherit;&quot;&gt;&lt;font style=&quot;vertical-align: inherit;&quot;&gt;&lt;font style=&quot;vertical-align: inherit;&quot;&gt;Fecha_naci&lt;/font&gt;&lt;/font&gt;&lt;/font&gt;&lt;/font&gt;&lt;/font&gt;&lt;/font&gt;" style="ellipse;whiteSpace=wrap;html=1;align=center;" parent="1" vertex="1">
          <mxGeometry x="487.5" y="332.42" width="65" height="20" as="geometry" />
        </mxCell>
        <mxCell id="JgR8hPMslYkNpSHdRMmN-26" value="&lt;font style=&quot;vertical-align: inherit;&quot;&gt;&lt;font style=&quot;vertical-align: inherit;&quot;&gt;&lt;font style=&quot;vertical-align: inherit;&quot;&gt;&lt;font style=&quot;vertical-align: inherit;&quot;&gt;&lt;font style=&quot;vertical-align: inherit;&quot;&gt;&lt;font style=&quot;vertical-align: inherit;&quot;&gt;&lt;u&gt;RUT&lt;/u&gt;&lt;/font&gt;&lt;/font&gt;&lt;/font&gt;&lt;/font&gt;&lt;/font&gt;&lt;/font&gt;" style="ellipse;whiteSpace=wrap;html=1;align=center;" parent="1" vertex="1">
          <mxGeometry x="536.75" y="302.42" width="50" height="20" as="geometry" />
        </mxCell>
        <mxCell id="JgR8hPMslYkNpSHdRMmN-30" value="" style="endArrow=none;html=1;rounded=0;" parent="1" source="JgR8hPMslYkNpSHdRMmN-21" target="evNd5tsoBMQe8YD3A1kR-13" edge="1">
          <mxGeometry relative="1" as="geometry">
            <mxPoint x="360" y="322.42" as="sourcePoint" />
            <mxPoint x="520" y="322.42" as="targetPoint" />
          </mxGeometry>
        </mxCell>
        <mxCell id="JgR8hPMslYkNpSHdRMmN-31" value="" style="endArrow=none;html=1;rounded=0;" parent="1" source="evNd5tsoBMQe8YD3A1kR-13" target="JgR8hPMslYkNpSHdRMmN-22" edge="1">
          <mxGeometry relative="1" as="geometry">
            <mxPoint x="360" y="322.42" as="sourcePoint" />
            <mxPoint x="520" y="322.42" as="targetPoint" />
          </mxGeometry>
        </mxCell>
        <mxCell id="JgR8hPMslYkNpSHdRMmN-32" value="" style="endArrow=none;html=1;rounded=0;" parent="1" source="evNd5tsoBMQe8YD3A1kR-13" target="JgR8hPMslYkNpSHdRMmN-25" edge="1">
          <mxGeometry relative="1" as="geometry">
            <mxPoint x="360" y="322.42" as="sourcePoint" />
            <mxPoint x="520" y="322.42" as="targetPoint" />
          </mxGeometry>
        </mxCell>
        <mxCell id="JgR8hPMslYkNpSHdRMmN-34" value="" style="endArrow=none;html=1;rounded=0;" parent="1" source="evNd5tsoBMQe8YD3A1kR-13" target="JgR8hPMslYkNpSHdRMmN-26" edge="1">
          <mxGeometry relative="1" as="geometry">
            <mxPoint x="360" y="322.42" as="sourcePoint" />
            <mxPoint x="520" y="322.42" as="targetPoint" />
          </mxGeometry>
        </mxCell>
        <mxCell id="JgR8hPMslYkNpSHdRMmN-43" value="&lt;font style=&quot;vertical-align: inherit;&quot;&gt;&lt;font style=&quot;vertical-align: inherit;&quot;&gt;&lt;font style=&quot;vertical-align: inherit;&quot;&gt;&lt;font style=&quot;vertical-align: inherit;&quot;&gt;&lt;font style=&quot;vertical-align: inherit;&quot;&gt;&lt;font style=&quot;vertical-align: inherit;&quot;&gt;Certificado&lt;/font&gt;&lt;/font&gt;&lt;/font&gt;&lt;/font&gt;&lt;/font&gt;&lt;/font&gt;" style="ellipse;whiteSpace=wrap;html=1;align=center;" parent="1" vertex="1">
          <mxGeometry x="396" y="555" width="66" height="20" as="geometry" />
        </mxCell>
        <mxCell id="JgR8hPMslYkNpSHdRMmN-44" value="&lt;font style=&quot;vertical-align: inherit;&quot;&gt;&lt;font style=&quot;vertical-align: inherit;&quot;&gt;&lt;font style=&quot;vertical-align: inherit;&quot;&gt;&lt;font style=&quot;vertical-align: inherit;&quot;&gt;&lt;font style=&quot;vertical-align: inherit;&quot;&gt;&lt;font style=&quot;vertical-align: inherit;&quot;&gt;Licencia&lt;/font&gt;&lt;/font&gt;&lt;/font&gt;&lt;/font&gt;&lt;/font&gt;&lt;/font&gt;" style="ellipse;whiteSpace=wrap;html=1;align=center;" parent="1" vertex="1">
          <mxGeometry x="492.5" y="550" width="50" height="20" as="geometry" />
        </mxCell>
        <mxCell id="JgR8hPMslYkNpSHdRMmN-45" value="&lt;font style=&quot;vertical-align: inherit;&quot;&gt;&lt;font style=&quot;vertical-align: inherit;&quot;&gt;&lt;font style=&quot;vertical-align: inherit;&quot;&gt;&lt;font style=&quot;vertical-align: inherit;&quot;&gt;&lt;font style=&quot;vertical-align: inherit;&quot;&gt;&lt;font style=&quot;vertical-align: inherit;&quot;&gt;Nivel&lt;br&gt;jerarquico&lt;br&gt;&lt;/font&gt;&lt;/font&gt;&lt;/font&gt;&lt;/font&gt;&lt;/font&gt;&lt;/font&gt;" style="ellipse;whiteSpace=wrap;html=1;align=center;" parent="1" vertex="1">
          <mxGeometry x="285" y="550" width="65" height="30" as="geometry" />
        </mxCell>
        <mxCell id="JgR8hPMslYkNpSHdRMmN-47" value="Exp_venta" style="ellipse;whiteSpace=wrap;html=1;align=center;" parent="1" vertex="1">
          <mxGeometry x="105" y="470" width="57.5" height="20" as="geometry" />
        </mxCell>
        <mxCell id="JgR8hPMslYkNpSHdRMmN-48" value="&lt;font style=&quot;vertical-align: inherit;&quot;&gt;&lt;font style=&quot;vertical-align: inherit;&quot;&gt;histÃ³rico&lt;/font&gt;&lt;/font&gt;" style="ellipse;whiteSpace=wrap;html=1;align=center;" parent="1" vertex="1">
          <mxGeometry x="562.5" y="550" width="50" height="20" as="geometry" />
        </mxCell>
        <mxCell id="JgR8hPMslYkNpSHdRMmN-49" value="&lt;font style=&quot;vertical-align: inherit;&quot;&gt;&lt;font style=&quot;vertical-align: inherit;&quot;&gt;&lt;font style=&quot;vertical-align: inherit;&quot;&gt;&lt;font style=&quot;vertical-align: inherit;&quot;&gt;&lt;font style=&quot;vertical-align: inherit;&quot;&gt;&lt;font style=&quot;vertical-align: inherit;&quot;&gt;UbicaciÃ³n&lt;/font&gt;&lt;/font&gt;&lt;/font&gt;&lt;/font&gt;&lt;/font&gt;&lt;/font&gt;" style="ellipse;whiteSpace=wrap;html=1;align=center;" parent="1" vertex="1">
          <mxGeometry x="697.5" y="550" width="60" height="20" as="geometry" />
        </mxCell>
        <mxCell id="JgR8hPMslYkNpSHdRMmN-50" value="" style="endArrow=none;html=1;rounded=0;" parent="1" source="JgR8hPMslYkNpSHdRMmN-44" target="evNd5tsoBMQe8YD3A1kR-25" edge="1">
          <mxGeometry relative="1" as="geometry">
            <mxPoint x="352.5" y="570" as="sourcePoint" />
            <mxPoint x="512.5" y="570" as="targetPoint" />
          </mxGeometry>
        </mxCell>
        <mxCell id="JgR8hPMslYkNpSHdRMmN-51" value="" style="endArrow=none;html=1;rounded=0;" parent="1" source="evNd5tsoBMQe8YD3A1kR-24" target="JgR8hPMslYkNpSHdRMmN-43" edge="1">
          <mxGeometry relative="1" as="geometry">
            <mxPoint x="352.5" y="570" as="sourcePoint" />
            <mxPoint x="512.5" y="570" as="targetPoint" />
          </mxGeometry>
        </mxCell>
        <mxCell id="JgR8hPMslYkNpSHdRMmN-52" value="" style="endArrow=none;html=1;rounded=0;" parent="1" source="evNd5tsoBMQe8YD3A1kR-23" target="JgR8hPMslYkNpSHdRMmN-45" edge="1">
          <mxGeometry relative="1" as="geometry">
            <mxPoint x="352.5" y="570" as="sourcePoint" />
            <mxPoint x="512.5" y="570" as="targetPoint" />
          </mxGeometry>
        </mxCell>
        <mxCell id="JgR8hPMslYkNpSHdRMmN-53" value="" style="endArrow=none;html=1;rounded=0;" parent="1" source="evNd5tsoBMQe8YD3A1kR-21" target="JgR8hPMslYkNpSHdRMmN-47" edge="1">
          <mxGeometry relative="1" as="geometry">
            <mxPoint x="352.5" y="570" as="sourcePoint" />
            <mxPoint x="512.5" y="570" as="targetPoint" />
          </mxGeometry>
        </mxCell>
        <mxCell id="JgR8hPMslYkNpSHdRMmN-56" value="" style="endArrow=none;html=1;rounded=0;" parent="1" source="JgR8hPMslYkNpSHdRMmN-48" target="evNd5tsoBMQe8YD3A1kR-26" edge="1">
          <mxGeometry relative="1" as="geometry">
            <mxPoint x="352.5" y="570" as="sourcePoint" />
            <mxPoint x="512.5" y="570" as="targetPoint" />
          </mxGeometry>
        </mxCell>
        <mxCell id="JgR8hPMslYkNpSHdRMmN-57" value="" style="endArrow=none;html=1;rounded=0;" parent="1" source="JgR8hPMslYkNpSHdRMmN-49" target="evNd5tsoBMQe8YD3A1kR-22" edge="1">
          <mxGeometry relative="1" as="geometry">
            <mxPoint x="352.5" y="570" as="sourcePoint" />
            <mxPoint x="512.5" y="570" as="targetPoint" />
          </mxGeometry>
        </mxCell>
        <mxCell id="JgR8hPMslYkNpSHdRMmN-58" value="Cantidad" style="ellipse;whiteSpace=wrap;html=1;align=center;" parent="1" vertex="1">
          <mxGeometry x="120.5" y="976" width="60" height="20" as="geometry" />
        </mxCell>
        <mxCell id="JgR8hPMslYkNpSHdRMmN-59" value="Fecha" style="ellipse;whiteSpace=wrap;html=1;align=center;" parent="1" vertex="1">
          <mxGeometry x="190.5" y="966" width="60" height="20" as="geometry" />
        </mxCell>
        <mxCell id="JgR8hPMslYkNpSHdRMmN-60" value="Mes" style="ellipse;whiteSpace=wrap;html=1;align=center;" parent="1" vertex="1">
          <mxGeometry x="165.5" y="1006" width="40" height="20" as="geometry" />
        </mxCell>
        <mxCell id="JgR8hPMslYkNpSHdRMmN-61" value="AÃ±o" style="ellipse;whiteSpace=wrap;html=1;align=center;" parent="1" vertex="1">
          <mxGeometry x="213" y="1016" width="40" height="20" as="geometry" />
        </mxCell>
        <mxCell id="JgR8hPMslYkNpSHdRMmN-62" value="Dia" style="ellipse;whiteSpace=wrap;html=1;align=center;" parent="1" vertex="1">
          <mxGeometry x="245.5" y="996" width="40" height="20" as="geometry" />
        </mxCell>
        <mxCell id="JgR8hPMslYkNpSHdRMmN-63" value="Hora" style="ellipse;whiteSpace=wrap;html=1;align=center;" parent="1" vertex="1">
          <mxGeometry x="260.5" y="966" width="40" height="20" as="geometry" />
        </mxCell>
        <mxCell id="JgR8hPMslYkNpSHdRMmN-65" value="&lt;u&gt;Cod_pedido&lt;/u&gt;" style="ellipse;whiteSpace=wrap;html=1;align=center;" parent="1" vertex="1">
          <mxGeometry x="12" y="966" width="70" height="20" as="geometry" />
        </mxCell>
        <mxCell id="JgR8hPMslYkNpSHdRMmN-66" value="Descripcion" style="ellipse;whiteSpace=wrap;html=1;align=center;" parent="1" vertex="1">
          <mxGeometry x="55" y="986" width="74.5" height="20" as="geometry" />
        </mxCell>
        <mxCell id="JgR8hPMslYkNpSHdRMmN-68" value="" style="endArrow=none;html=1;rounded=0;" parent="1" source="evNd5tsoBMQe8YD3A1kR-41" target="JgR8hPMslYkNpSHdRMmN-58" edge="1">
          <mxGeometry relative="1" as="geometry">
            <mxPoint x="241" y="686" as="sourcePoint" />
            <mxPoint x="401" y="686" as="targetPoint" />
          </mxGeometry>
        </mxCell>
        <mxCell id="JgR8hPMslYkNpSHdRMmN-69" value="" style="endArrow=none;html=1;rounded=0;" parent="1" source="evNd5tsoBMQe8YD3A1kR-41" target="JgR8hPMslYkNpSHdRMmN-66" edge="1">
          <mxGeometry relative="1" as="geometry">
            <mxPoint x="241" y="686" as="sourcePoint" />
            <mxPoint x="401" y="686" as="targetPoint" />
          </mxGeometry>
        </mxCell>
        <mxCell id="JgR8hPMslYkNpSHdRMmN-70" value="" style="endArrow=none;html=1;rounded=0;" parent="1" source="evNd5tsoBMQe8YD3A1kR-41" target="JgR8hPMslYkNpSHdRMmN-59" edge="1">
          <mxGeometry relative="1" as="geometry">
            <mxPoint x="277.5" y="976" as="sourcePoint" />
            <mxPoint x="571.63" y="716" as="targetPoint" />
          </mxGeometry>
        </mxCell>
        <mxCell id="JgR8hPMslYkNpSHdRMmN-71" value="" style="endArrow=none;html=1;rounded=0;" parent="1" source="evNd5tsoBMQe8YD3A1kR-41" target="JgR8hPMslYkNpSHdRMmN-65" edge="1">
          <mxGeometry relative="1" as="geometry">
            <mxPoint x="241" y="686" as="sourcePoint" />
            <mxPoint x="401" y="686" as="targetPoint" />
          </mxGeometry>
        </mxCell>
        <mxCell id="JgR8hPMslYkNpSHdRMmN-72" value="" style="endArrow=none;html=1;rounded=0;" parent="1" source="JgR8hPMslYkNpSHdRMmN-60" target="JgR8hPMslYkNpSHdRMmN-59" edge="1">
          <mxGeometry relative="1" as="geometry">
            <mxPoint x="455.38" y="1025" as="sourcePoint" />
            <mxPoint x="615.38" y="1025" as="targetPoint" />
          </mxGeometry>
        </mxCell>
        <mxCell id="JgR8hPMslYkNpSHdRMmN-73" value="" style="endArrow=none;html=1;rounded=0;" parent="1" source="JgR8hPMslYkNpSHdRMmN-61" target="JgR8hPMslYkNpSHdRMmN-59" edge="1">
          <mxGeometry relative="1" as="geometry">
            <mxPoint x="455.38" y="1025" as="sourcePoint" />
            <mxPoint x="615.38" y="1025" as="targetPoint" />
          </mxGeometry>
        </mxCell>
        <mxCell id="JgR8hPMslYkNpSHdRMmN-74" value="" style="endArrow=none;html=1;rounded=0;" parent="1" source="JgR8hPMslYkNpSHdRMmN-62" target="JgR8hPMslYkNpSHdRMmN-59" edge="1">
          <mxGeometry relative="1" as="geometry">
            <mxPoint x="455.38" y="1025" as="sourcePoint" />
            <mxPoint x="615.38" y="1025" as="targetPoint" />
          </mxGeometry>
        </mxCell>
        <mxCell id="JgR8hPMslYkNpSHdRMmN-75" value="" style="endArrow=none;html=1;rounded=0;" parent="1" source="JgR8hPMslYkNpSHdRMmN-63" target="JgR8hPMslYkNpSHdRMmN-59" edge="1">
          <mxGeometry relative="1" as="geometry">
            <mxPoint x="455.38" y="1025" as="sourcePoint" />
            <mxPoint x="615.38" y="1025" as="targetPoint" />
          </mxGeometry>
        </mxCell>
        <mxCell id="JgR8hPMslYkNpSHdRMmN-76" value="Nombre" style="ellipse;whiteSpace=wrap;html=1;align=center;" parent="1" vertex="1">
          <mxGeometry x="167" y="670" width="60" height="20" as="geometry" />
        </mxCell>
        <mxCell id="JgR8hPMslYkNpSHdRMmN-77" value="UbicaciÃ³n" style="ellipse;whiteSpace=wrap;html=1;align=center;" parent="1" vertex="1">
          <mxGeometry x="102.5" y="710" width="60" height="20" as="geometry" />
        </mxCell>
        <mxCell id="JgR8hPMslYkNpSHdRMmN-78" value="Email" style="ellipse;whiteSpace=wrap;html=1;align=center;" parent="1" vertex="1">
          <mxGeometry x="281.5" y="740" width="44.5" height="20" as="geometry" />
        </mxCell>
        <mxCell id="JgR8hPMslYkNpSHdRMmN-79" value="&lt;u&gt;Cod_proveedor&lt;/u&gt;" style="ellipse;whiteSpace=wrap;html=1;align=center;" parent="1" vertex="1">
          <mxGeometry x="117.5" y="760" width="90" height="20" as="geometry" />
        </mxCell>
        <mxCell id="JgR8hPMslYkNpSHdRMmN-80" value="Telefono" style="ellipse;shape=doubleEllipse;margin=3;whiteSpace=wrap;html=1;align=center;" parent="1" vertex="1">
          <mxGeometry x="259.5" y="665" width="60" height="30" as="geometry" />
        </mxCell>
        <mxCell id="JgR8hPMslYkNpSHdRMmN-81" value="" style="endArrow=none;html=1;rounded=0;" parent="1" source="JgR8hPMslYkNpSHdRMmN-80" target="evNd5tsoBMQe8YD3A1kR-40" edge="1">
          <mxGeometry relative="1" as="geometry">
            <mxPoint x="231.5" y="690" as="sourcePoint" />
            <mxPoint x="391.5" y="690" as="targetPoint" />
          </mxGeometry>
        </mxCell>
        <mxCell id="JgR8hPMslYkNpSHdRMmN-82" value="" style="endArrow=none;html=1;rounded=0;" parent="1" source="JgR8hPMslYkNpSHdRMmN-76" target="evNd5tsoBMQe8YD3A1kR-40" edge="1">
          <mxGeometry relative="1" as="geometry">
            <mxPoint x="231.5" y="690" as="sourcePoint" />
            <mxPoint x="391.5" y="690" as="targetPoint" />
          </mxGeometry>
        </mxCell>
        <mxCell id="JgR8hPMslYkNpSHdRMmN-83" value="" style="endArrow=none;html=1;rounded=0;" parent="1" source="JgR8hPMslYkNpSHdRMmN-77" target="evNd5tsoBMQe8YD3A1kR-40" edge="1">
          <mxGeometry relative="1" as="geometry">
            <mxPoint x="231.5" y="690" as="sourcePoint" />
            <mxPoint x="391.5" y="690" as="targetPoint" />
          </mxGeometry>
        </mxCell>
        <mxCell id="JgR8hPMslYkNpSHdRMmN-84" value="" style="endArrow=none;html=1;rounded=0;" parent="1" source="JgR8hPMslYkNpSHdRMmN-79" target="evNd5tsoBMQe8YD3A1kR-40" edge="1">
          <mxGeometry relative="1" as="geometry">
            <mxPoint x="231.5" y="690" as="sourcePoint" />
            <mxPoint x="391.5" y="690" as="targetPoint" />
          </mxGeometry>
        </mxCell>
        <mxCell id="JgR8hPMslYkNpSHdRMmN-85" value="" style="endArrow=none;html=1;rounded=0;" parent="1" source="evNd5tsoBMQe8YD3A1kR-40" target="JgR8hPMslYkNpSHdRMmN-78" edge="1">
          <mxGeometry relative="1" as="geometry">
            <mxPoint x="231.5" y="690" as="sourcePoint" />
            <mxPoint x="391.5" y="690" as="targetPoint" />
          </mxGeometry>
        </mxCell>
        <mxCell id="JgR8hPMslYkNpSHdRMmN-87" value="Nombre" style="ellipse;whiteSpace=wrap;html=1;align=center;" parent="1" vertex="1">
          <mxGeometry x="412.5" y="760" width="60" height="20" as="geometry" />
        </mxCell>
        <mxCell id="JgR8hPMslYkNpSHdRMmN-88" value="Descripcion" style="ellipse;whiteSpace=wrap;html=1;align=center;" parent="1" vertex="1">
          <mxGeometry x="488" y="720" width="71" height="20" as="geometry" />
        </mxCell>
        <mxCell id="JgR8hPMslYkNpSHdRMmN-89" value="Fecha_ven" style="ellipse;whiteSpace=wrap;html=1;align=center;" parent="1" vertex="1">
          <mxGeometry x="490" y="680" width="70" height="20" as="geometry" />
        </mxCell>
        <mxCell id="JgR8hPMslYkNpSHdRMmN-90" value="&lt;u&gt;Cod_producto&lt;/u&gt;" style="ellipse;whiteSpace=wrap;html=1;align=center;" parent="1" vertex="1">
          <mxGeometry x="412" y="660" width="87" height="20" as="geometry" />
        </mxCell>
        <mxCell id="JgR8hPMslYkNpSHdRMmN-91" value="Precio" style="ellipse;whiteSpace=wrap;html=1;align=center;" parent="1" vertex="1">
          <mxGeometry x="472.5" y="745" width="60" height="20" as="geometry" />
        </mxCell>
        <mxCell id="JgR8hPMslYkNpSHdRMmN-92" value="" style="endArrow=none;html=1;rounded=0;" parent="1" source="evNd5tsoBMQe8YD3A1kR-39" target="JgR8hPMslYkNpSHdRMmN-90" edge="1">
          <mxGeometry relative="1" as="geometry">
            <mxPoint x="231.5" y="690" as="sourcePoint" />
            <mxPoint x="391.5" y="690" as="targetPoint" />
          </mxGeometry>
        </mxCell>
        <mxCell id="JgR8hPMslYkNpSHdRMmN-93" value="" style="endArrow=none;html=1;rounded=0;" parent="1" source="evNd5tsoBMQe8YD3A1kR-39" target="JgR8hPMslYkNpSHdRMmN-89" edge="1">
          <mxGeometry relative="1" as="geometry">
            <mxPoint x="231.5" y="690" as="sourcePoint" />
            <mxPoint x="391.5" y="690" as="targetPoint" />
          </mxGeometry>
        </mxCell>
        <mxCell id="JgR8hPMslYkNpSHdRMmN-94" value="" style="endArrow=none;html=1;rounded=0;" parent="1" source="evNd5tsoBMQe8YD3A1kR-39" target="JgR8hPMslYkNpSHdRMmN-88" edge="1">
          <mxGeometry relative="1" as="geometry">
            <mxPoint x="231.5" y="690" as="sourcePoint" />
            <mxPoint x="391.5" y="690" as="targetPoint" />
          </mxGeometry>
        </mxCell>
        <mxCell id="JgR8hPMslYkNpSHdRMmN-95" value="" style="endArrow=none;html=1;rounded=0;" parent="1" source="evNd5tsoBMQe8YD3A1kR-39" target="JgR8hPMslYkNpSHdRMmN-91" edge="1">
          <mxGeometry relative="1" as="geometry">
            <mxPoint x="231.5" y="690" as="sourcePoint" />
            <mxPoint x="391.5" y="690" as="targetPoint" />
          </mxGeometry>
        </mxCell>
        <mxCell id="JgR8hPMslYkNpSHdRMmN-96" value="" style="endArrow=none;html=1;rounded=0;" parent="1" source="evNd5tsoBMQe8YD3A1kR-39" target="JgR8hPMslYkNpSHdRMmN-87" edge="1">
          <mxGeometry relative="1" as="geometry">
            <mxPoint x="231.5" y="690" as="sourcePoint" />
            <mxPoint x="391.5" y="690" as="targetPoint" />
          </mxGeometry>
        </mxCell>
        <mxCell id="JgR8hPMslYkNpSHdRMmN-97" value="Pasos" style="ellipse;whiteSpace=wrap;html=1;align=center;" parent="1" vertex="1">
          <mxGeometry x="434.5" y="790" width="60" height="20" as="geometry" />
        </mxCell>
        <mxCell id="JgR8hPMslYkNpSHdRMmN-98" value="Descripcion" style="ellipse;whiteSpace=wrap;html=1;align=center;" parent="1" vertex="1">
          <mxGeometry x="494.5" y="815" width="77.5" height="20" as="geometry" />
        </mxCell>
        <mxCell id="JgR8hPMslYkNpSHdRMmN-99" value="Tiempo_prepa" style="ellipse;whiteSpace=wrap;html=1;align=center;" parent="1" vertex="1">
          <mxGeometry x="499" y="860" width="81" height="20" as="geometry" />
        </mxCell>
        <mxCell id="JgR8hPMslYkNpSHdRMmN-100" value="&lt;u&gt;Cod_receta&lt;/u&gt;" style="ellipse;whiteSpace=wrap;html=1;align=center;" parent="1" vertex="1">
          <mxGeometry x="444" y="900" width="65" height="20" as="geometry" />
        </mxCell>
        <mxCell id="JgR8hPMslYkNpSHdRMmN-101" value="Nombre" style="ellipse;whiteSpace=wrap;html=1;align=center;" parent="1" vertex="1">
          <mxGeometry x="141.5" y="890" width="60" height="20" as="geometry" />
        </mxCell>
        <mxCell id="JgR8hPMslYkNpSHdRMmN-103" value="Cantidad" style="ellipse;whiteSpace=wrap;html=1;align=center;" parent="1" vertex="1">
          <mxGeometry x="76.5" y="870" width="60" height="20" as="geometry" />
        </mxCell>
        <mxCell id="JgR8hPMslYkNpSHdRMmN-104" value="Fecha_ven" style="ellipse;whiteSpace=wrap;html=1;align=center;" parent="1" vertex="1">
          <mxGeometry x="71.5" y="835" width="65" height="20" as="geometry" />
        </mxCell>
        <mxCell id="JgR8hPMslYkNpSHdRMmN-105" value="&lt;u&gt;Cod_ingrediente&lt;/u&gt;" style="ellipse;whiteSpace=wrap;html=1;align=center;" parent="1" vertex="1">
          <mxGeometry x="76.5" y="800" width="90" height="20" as="geometry" />
        </mxCell>
        <mxCell id="JgR8hPMslYkNpSHdRMmN-106" value="" style="endArrow=none;html=1;rounded=0;" parent="1" source="JgR8hPMslYkNpSHdRMmN-105" target="evNd5tsoBMQe8YD3A1kR-53" edge="1">
          <mxGeometry relative="1" as="geometry">
            <mxPoint x="231.5" y="810" as="sourcePoint" />
            <mxPoint x="391.5" y="810" as="targetPoint" />
          </mxGeometry>
        </mxCell>
        <mxCell id="JgR8hPMslYkNpSHdRMmN-107" value="" style="endArrow=none;html=1;rounded=0;" parent="1" source="JgR8hPMslYkNpSHdRMmN-104" target="evNd5tsoBMQe8YD3A1kR-53" edge="1">
          <mxGeometry relative="1" as="geometry">
            <mxPoint x="231.5" y="810" as="sourcePoint" />
            <mxPoint x="391.5" y="810" as="targetPoint" />
          </mxGeometry>
        </mxCell>
        <mxCell id="JgR8hPMslYkNpSHdRMmN-108" value="" style="endArrow=none;html=1;rounded=0;" parent="1" source="JgR8hPMslYkNpSHdRMmN-103" target="evNd5tsoBMQe8YD3A1kR-53" edge="1">
          <mxGeometry relative="1" as="geometry">
            <mxPoint x="231.5" y="810" as="sourcePoint" />
            <mxPoint x="391.5" y="810" as="targetPoint" />
          </mxGeometry>
        </mxCell>
        <mxCell id="JgR8hPMslYkNpSHdRMmN-109" value="" style="endArrow=none;html=1;rounded=0;" parent="1" source="JgR8hPMslYkNpSHdRMmN-101" target="evNd5tsoBMQe8YD3A1kR-53" edge="1">
          <mxGeometry relative="1" as="geometry">
            <mxPoint x="231.5" y="810" as="sourcePoint" />
            <mxPoint x="391.5" y="810" as="targetPoint" />
          </mxGeometry>
        </mxCell>
        <mxCell id="JgR8hPMslYkNpSHdRMmN-110" value="" style="endArrow=none;html=1;rounded=0;" parent="1" source="evNd5tsoBMQe8YD3A1kR-42" target="JgR8hPMslYkNpSHdRMmN-100" edge="1">
          <mxGeometry relative="1" as="geometry">
            <mxPoint x="231.5" y="810" as="sourcePoint" />
            <mxPoint x="478.96936816024845" y="900.4881939450634" as="targetPoint" />
          </mxGeometry>
        </mxCell>
        <mxCell id="JgR8hPMslYkNpSHdRMmN-111" value="" style="endArrow=none;html=1;rounded=0;" parent="1" source="JgR8hPMslYkNpSHdRMmN-99" target="evNd5tsoBMQe8YD3A1kR-42" edge="1">
          <mxGeometry relative="1" as="geometry">
            <mxPoint x="231.5" y="810" as="sourcePoint" />
            <mxPoint x="391.5" y="810" as="targetPoint" />
          </mxGeometry>
        </mxCell>
        <mxCell id="JgR8hPMslYkNpSHdRMmN-112" value="" style="endArrow=none;html=1;rounded=0;" parent="1" source="evNd5tsoBMQe8YD3A1kR-42" target="JgR8hPMslYkNpSHdRMmN-97" edge="1">
          <mxGeometry relative="1" as="geometry">
            <mxPoint x="231.5" y="810" as="sourcePoint" />
            <mxPoint x="391.5" y="810" as="targetPoint" />
          </mxGeometry>
        </mxCell>
        <mxCell id="JgR8hPMslYkNpSHdRMmN-113" value="" style="endArrow=none;html=1;rounded=0;" parent="1" source="evNd5tsoBMQe8YD3A1kR-42" target="JgR8hPMslYkNpSHdRMmN-98" edge="1">
          <mxGeometry relative="1" as="geometry">
            <mxPoint x="231.5" y="810" as="sourcePoint" />
            <mxPoint x="391.5" y="810" as="targetPoint" />
          </mxGeometry>
        </mxCell>
        <mxCell id="JgR8hPMslYkNpSHdRMmN-116" value="Marca" style="ellipse;whiteSpace=wrap;html=1;align=center;" parent="1" vertex="1">
          <mxGeometry x="510.5" y="976" width="60" height="20" as="geometry" />
        </mxCell>
        <mxCell id="JgR8hPMslYkNpSHdRMmN-117" value="Cap_carga" style="ellipse;whiteSpace=wrap;html=1;align=center;" parent="1" vertex="1">
          <mxGeometry x="379" y="956" width="60" height="20" as="geometry" />
        </mxCell>
        <mxCell id="JgR8hPMslYkNpSHdRMmN-118" value="&lt;u&gt;Patente&lt;/u&gt;" style="ellipse;whiteSpace=wrap;html=1;align=center;" parent="1" vertex="1">
          <mxGeometry x="413.5" y="976" width="60" height="20" as="geometry" />
        </mxCell>
        <mxCell id="JgR8hPMslYkNpSHdRMmN-120" value="Tipo_vehiculo" style="ellipse;whiteSpace=wrap;html=1;align=center;" parent="1" vertex="1">
          <mxGeometry x="457" y="996" width="80" height="20" as="geometry" />
        </mxCell>
        <mxCell id="JgR8hPMslYkNpSHdRMmN-121" value="AÃ±o" style="ellipse;whiteSpace=wrap;html=1;align=center;" parent="1" vertex="1">
          <mxGeometry x="560" y="956" width="49.5" height="20" as="geometry" />
        </mxCell>
        <mxCell id="JgR8hPMslYkNpSHdRMmN-122" value="" style="endArrow=none;html=1;rounded=0;" parent="1" source="evNd5tsoBMQe8YD3A1kR-65" target="JgR8hPMslYkNpSHdRMmN-118" edge="1">
          <mxGeometry relative="1" as="geometry">
            <mxPoint x="391" y="666" as="sourcePoint" />
            <mxPoint x="551" y="666" as="targetPoint" />
          </mxGeometry>
        </mxCell>
        <mxCell id="JgR8hPMslYkNpSHdRMmN-123" value="" style="endArrow=none;html=1;rounded=0;" parent="1" source="evNd5tsoBMQe8YD3A1kR-65" target="JgR8hPMslYkNpSHdRMmN-121" edge="1">
          <mxGeometry relative="1" as="geometry">
            <mxPoint x="391" y="666" as="sourcePoint" />
            <mxPoint x="551" y="666" as="targetPoint" />
          </mxGeometry>
        </mxCell>
        <mxCell id="JgR8hPMslYkNpSHdRMmN-124" value="" style="endArrow=none;html=1;rounded=0;" parent="1" source="evNd5tsoBMQe8YD3A1kR-65" target="JgR8hPMslYkNpSHdRMmN-120" edge="1">
          <mxGeometry relative="1" as="geometry">
            <mxPoint x="391" y="666" as="sourcePoint" />
            <mxPoint x="551" y="666" as="targetPoint" />
          </mxGeometry>
        </mxCell>
        <mxCell id="JgR8hPMslYkNpSHdRMmN-126" value="" style="endArrow=none;html=1;rounded=0;" parent="1" source="evNd5tsoBMQe8YD3A1kR-65" target="JgR8hPMslYkNpSHdRMmN-117" edge="1">
          <mxGeometry relative="1" as="geometry">
            <mxPoint x="391" y="666" as="sourcePoint" />
            <mxPoint x="551" y="666" as="targetPoint" />
          </mxGeometry>
        </mxCell>
        <mxCell id="JgR8hPMslYkNpSHdRMmN-127" value="" style="endArrow=none;html=1;rounded=0;" parent="1" source="evNd5tsoBMQe8YD3A1kR-65" target="JgR8hPMslYkNpSHdRMmN-116" edge="1">
          <mxGeometry relative="1" as="geometry">
            <mxPoint x="391" y="666" as="sourcePoint" />
            <mxPoint x="551" y="666" as="targetPoint" />
          </mxGeometry>
        </mxCell>
        <mxCell id="JgR8hPMslYkNpSHdRMmN-128" value="Correo" style="ellipse;whiteSpace=wrap;html=1;align=center;" parent="1" vertex="1">
          <mxGeometry x="381.5" y="322.42" width="60" height="20" as="geometry" />
        </mxCell>
        <mxCell id="JgR8hPMslYkNpSHdRMmN-129" value="" style="endArrow=none;html=1;rounded=0;" parent="1" source="JgR8hPMslYkNpSHdRMmN-128" target="evNd5tsoBMQe8YD3A1kR-13" edge="1">
          <mxGeometry relative="1" as="geometry">
            <mxPoint x="440" y="372.42" as="sourcePoint" />
            <mxPoint x="600" y="372.42" as="targetPoint" />
          </mxGeometry>
        </mxCell>
        <mxCell id="JgR8hPMslYkNpSHdRMmN-130" value="Paga" style="shape=rhombus;perimeter=rhombusPerimeter;whiteSpace=wrap;html=1;align=center;" parent="1" vertex="1">
          <mxGeometry x="207.5" y="270" width="60" height="30" as="geometry" />
        </mxCell>
        <mxCell id="JgR8hPMslYkNpSHdRMmN-131" value="" style="endArrow=none;html=1;rounded=0;" parent="1" source="JgR8hPMslYkNpSHdRMmN-130" target="evNd5tsoBMQe8YD3A1kR-13" edge="1">
          <mxGeometry relative="1" as="geometry">
            <mxPoint x="242.5" y="360" as="sourcePoint" />
            <mxPoint x="402.5" y="360" as="targetPoint" />
          </mxGeometry>
        </mxCell>
        <mxCell id="JgR8hPMslYkNpSHdRMmN-132" value="" style="endArrow=none;html=1;rounded=0;" parent="1" source="wp8HfD6uASBAMqAnJn2B-8" target="JgR8hPMslYkNpSHdRMmN-130" edge="1">
          <mxGeometry relative="1" as="geometry">
            <mxPoint x="52.5" y="240.71428571428578" as="sourcePoint" />
            <mxPoint x="307.5" y="360" as="targetPoint" />
          </mxGeometry>
        </mxCell>
        <mxCell id="JgR8hPMslYkNpSHdRMmN-133" value="&lt;font style=&quot;vertical-align: inherit;&quot;&gt;&lt;font style=&quot;vertical-align: inherit;&quot;&gt;&lt;font style=&quot;vertical-align: inherit;&quot;&gt;&lt;font style=&quot;vertical-align: inherit;&quot;&gt;&lt;font style=&quot;vertical-align: inherit;&quot;&gt;&lt;font style=&quot;vertical-align: inherit;&quot;&gt;Monto&lt;/font&gt;&lt;/font&gt;&lt;/font&gt;&lt;/font&gt;&lt;/font&gt;&lt;/font&gt;" style="ellipse;whiteSpace=wrap;html=1;align=center;" parent="1" vertex="1">
          <mxGeometry x="-100" y="322.42" width="50" height="20" as="geometry" />
        </mxCell>
        <mxCell id="JgR8hPMslYkNpSHdRMmN-134" value="&lt;font style=&quot;vertical-align: inherit;&quot;&gt;&lt;font style=&quot;vertical-align: inherit;&quot;&gt;&lt;font style=&quot;vertical-align: inherit;&quot;&gt;&lt;font style=&quot;vertical-align: inherit;&quot;&gt;&lt;font style=&quot;vertical-align: inherit;&quot;&gt;&lt;font style=&quot;vertical-align: inherit;&quot;&gt;Metodo_pago&lt;/font&gt;&lt;/font&gt;&lt;/font&gt;&lt;/font&gt;&lt;/font&gt;&lt;/font&gt;" style="ellipse;whiteSpace=wrap;html=1;align=center;" parent="1" vertex="1">
          <mxGeometry x="9.5" y="215" width="75" height="20" as="geometry" />
        </mxCell>
        <mxCell id="JgR8hPMslYkNpSHdRMmN-135" value="&lt;font style=&quot;vertical-align: inherit;&quot;&gt;&lt;font style=&quot;vertical-align: inherit;&quot;&gt;&lt;font style=&quot;vertical-align: inherit;&quot;&gt;&lt;font style=&quot;vertical-align: inherit;&quot;&gt;&lt;font style=&quot;vertical-align: inherit;&quot;&gt;&lt;font style=&quot;vertical-align: inherit;&quot;&gt;&lt;font style=&quot;vertical-align: inherit;&quot;&gt;&lt;font style=&quot;vertical-align: inherit;&quot;&gt;Detalle&lt;/font&gt;&lt;/font&gt;&lt;/font&gt;&lt;/font&gt;&lt;/font&gt;&lt;/font&gt;&lt;/font&gt;&lt;/font&gt;" style="ellipse;whiteSpace=wrap;html=1;align=center;" parent="1" vertex="1">
          <mxGeometry x="-70" y="215" width="65" height="20" as="geometry" />
        </mxCell>
        <mxCell id="JgR8hPMslYkNpSHdRMmN-137" value="&lt;font style=&quot;vertical-align: inherit;&quot;&gt;&lt;font style=&quot;vertical-align: inherit;&quot;&gt;&lt;font style=&quot;vertical-align: inherit;&quot;&gt;&lt;font style=&quot;vertical-align: inherit;&quot;&gt;&lt;font style=&quot;vertical-align: inherit;&quot;&gt;&lt;font style=&quot;vertical-align: inherit;&quot;&gt;&lt;u&gt;Cod_transacciÃ³n&lt;/u&gt;&lt;/font&gt;&lt;/font&gt;&lt;/font&gt;&lt;/font&gt;&lt;/font&gt;&lt;/font&gt;" style="ellipse;whiteSpace=wrap;html=1;align=center;" parent="1" vertex="1">
          <mxGeometry x="44.75" y="250" width="95" height="20" as="geometry" />
        </mxCell>
        <mxCell id="JgR8hPMslYkNpSHdRMmN-138" value="" style="endArrow=none;html=1;rounded=0;" parent="1" source="wp8HfD6uASBAMqAnJn2B-8" target="JgR8hPMslYkNpSHdRMmN-137" edge="1">
          <mxGeometry relative="1" as="geometry">
            <mxPoint x="-253.0907536088696" y="466" as="sourcePoint" />
            <mxPoint x="-2.5" y="516" as="targetPoint" />
          </mxGeometry>
        </mxCell>
        <mxCell id="JgR8hPMslYkNpSHdRMmN-140" value="" style="endArrow=none;html=1;rounded=0;" parent="1" source="JgR8hPMslYkNpSHdRMmN-135" target="wp8HfD6uASBAMqAnJn2B-8" edge="1">
          <mxGeometry relative="1" as="geometry">
            <mxPoint x="-162.5" y="516" as="sourcePoint" />
            <mxPoint x="-255" y="272.7714285714286" as="targetPoint" />
          </mxGeometry>
        </mxCell>
        <mxCell id="JgR8hPMslYkNpSHdRMmN-141" value="" style="endArrow=none;html=1;rounded=0;" parent="1" source="JgR8hPMslYkNpSHdRMmN-134" target="wp8HfD6uASBAMqAnJn2B-8" edge="1">
          <mxGeometry relative="1" as="geometry">
            <mxPoint x="-162.5" y="516" as="sourcePoint" />
            <mxPoint x="-294.16666666666674" y="436" as="targetPoint" />
          </mxGeometry>
        </mxCell>
        <mxCell id="JgR8hPMslYkNpSHdRMmN-142" value="" style="endArrow=none;html=1;rounded=0;" parent="1" source="JgR8hPMslYkNpSHdRMmN-133" target="wp8HfD6uASBAMqAnJn2B-8" edge="1">
          <mxGeometry relative="1" as="geometry">
            <mxPoint x="-162.5" y="516" as="sourcePoint" />
            <mxPoint x="-266.3461538461538" y="436" as="targetPoint" />
          </mxGeometry>
        </mxCell>
        <mxCell id="wp8HfD6uASBAMqAnJn2B-2" value="O" style="text;html=1;strokeColor=none;fillColor=none;align=center;verticalAlign=middle;whiteSpace=wrap;rounded=0;" parent="1" vertex="1">
          <mxGeometry x="454" y="347.42" width="20" height="20" as="geometry" />
        </mxCell>
        <mxCell id="wp8HfD6uASBAMqAnJn2B-3" value="Num_caja" style="ellipse;whiteSpace=wrap;html=1;align=center;" parent="1" vertex="1">
          <mxGeometry x="77.5" y="550" width="60" height="20" as="geometry" />
        </mxCell>
        <mxCell id="wp8HfD6uASBAMqAnJn2B-4" value="" style="endArrow=none;html=1;rounded=0;" parent="1" source="evNd5tsoBMQe8YD3A1kR-21" target="wp8HfD6uASBAMqAnJn2B-3" edge="1">
          <mxGeometry relative="1" as="geometry">
            <mxPoint x="350" y="550" as="sourcePoint" />
            <mxPoint x="510" y="550" as="targetPoint" />
          </mxGeometry>
        </mxCell>
        <mxCell id="wp8HfD6uASBAMqAnJn2B-6" value="ContraseÃ±a caja" style="ellipse;whiteSpace=wrap;html=1;align=center;" parent="1" vertex="1">
          <mxGeometry x="47.5" y="500" width="72.5" height="35" as="geometry" />
        </mxCell>
        <mxCell id="wp8HfD6uASBAMqAnJn2B-7" value="" style="endArrow=none;html=1;rounded=0;" parent="1" source="wp8HfD6uASBAMqAnJn2B-6" target="evNd5tsoBMQe8YD3A1kR-21" edge="1">
          <mxGeometry relative="1" as="geometry">
            <mxPoint x="350" y="550" as="sourcePoint" />
            <mxPoint x="510" y="550" as="targetPoint" />
          </mxGeometry>
        </mxCell>
        <mxCell id="wp8HfD6uASBAMqAnJn2B-8" value="&lt;font style=&quot;vertical-align: inherit;&quot;&gt;&lt;font style=&quot;vertical-align: inherit;&quot;&gt;Orden de compra&lt;/font&gt;&lt;/font&gt;" style="whiteSpace=wrap;html=1;align=center;" parent="1" vertex="1">
          <mxGeometry x="-66.5" y="260" width="92.5" height="40" as="geometry" />
        </mxCell>
        <mxCell id="x0W5ZivT2Mt9_KlTAm6k-1" value="&lt;font style=&quot;vertical-align: inherit;&quot;&gt;&lt;font style=&quot;vertical-align: inherit;&quot;&gt;&lt;font style=&quot;vertical-align: inherit;&quot;&gt;&lt;font style=&quot;vertical-align: inherit;&quot;&gt;&lt;font style=&quot;vertical-align: inherit;&quot;&gt;&lt;font style=&quot;vertical-align: inherit;&quot;&gt;&lt;font style=&quot;vertical-align: inherit;&quot;&gt;&lt;font style=&quot;vertical-align: inherit;&quot;&gt;Tipo_comprobante&lt;/font&gt;&lt;/font&gt;&lt;/font&gt;&lt;/font&gt;&lt;/font&gt;&lt;/font&gt;&lt;/font&gt;&lt;/font&gt;" style="ellipse;whiteSpace=wrap;html=1;align=center;" parent="1" vertex="1">
          <mxGeometry x="42.5" y="310" width="120" height="20" as="geometry" />
        </mxCell>
        <mxCell id="x0W5ZivT2Mt9_KlTAm6k-2" value="" style="endArrow=none;html=1;rounded=0;" parent="1" source="x0W5ZivT2Mt9_KlTAm6k-1" target="wp8HfD6uASBAMqAnJn2B-8" edge="1">
          <mxGeometry relative="1" as="geometry">
            <mxPoint x="165" y="420" as="sourcePoint" />
            <mxPoint x="325" y="420" as="targetPoint" />
          </mxGeometry>
        </mxCell>
        <mxCell id="x0W5ZivT2Mt9_KlTAm6k-4" value="" style="endArrow=none;html=1;rounded=0;" parent="1" source="evNd5tsoBMQe8YD3A1kR-60" target="wp8HfD6uASBAMqAnJn2B-8" edge="1">
          <mxGeometry relative="1" as="geometry">
            <mxPoint x="260" y="420" as="sourcePoint" />
            <mxPoint x="420" y="420" as="targetPoint" />
          </mxGeometry>
        </mxCell>
        <mxCell id="XzaRd1j-h2BiTwVMXHG0-2" value="&lt;font style=&quot;vertical-align: inherit;&quot;&gt;&lt;font style=&quot;vertical-align: inherit;&quot;&gt;&lt;font style=&quot;vertical-align: inherit;&quot;&gt;&lt;font style=&quot;vertical-align: inherit;&quot;&gt;&lt;font style=&quot;vertical-align: inherit;&quot;&gt;&lt;font style=&quot;vertical-align: inherit;&quot;&gt;Trabajan&lt;/font&gt;&lt;/font&gt;&lt;/font&gt;&lt;/font&gt;&lt;/font&gt;&lt;/font&gt;" style="shape=rhombus;perimeter=rhombusPerimeter;whiteSpace=wrap;html=1;align=center;" parent="1" vertex="1">
          <mxGeometry x="492.5" y="160" width="71" height="30" as="geometry" />
        </mxCell>
        <mxCell id="XzaRd1j-h2BiTwVMXHG0-3" value="" style="endArrow=none;html=1;rounded=0;" parent="1" source="evNd5tsoBMQe8YD3A1kR-13" target="XzaRd1j-h2BiTwVMXHG0-2" edge="1">
          <mxGeometry relative="1" as="geometry">
            <mxPoint x="382" y="450" as="sourcePoint" />
            <mxPoint x="542" y="450" as="targetPoint" />
          </mxGeometry>
        </mxCell>
        <mxCell id="XzaRd1j-h2BiTwVMXHG0-5" value="&lt;font style=&quot;vertical-align: inherit;&quot;&gt;&lt;font style=&quot;vertical-align: inherit;&quot;&gt;&lt;font style=&quot;vertical-align: inherit;&quot;&gt;&lt;font style=&quot;vertical-align: inherit;&quot;&gt;&lt;font style=&quot;vertical-align: inherit;&quot;&gt;&lt;font style=&quot;vertical-align: inherit;&quot;&gt;Empleado&lt;/font&gt;&lt;/font&gt;&lt;/font&gt;&lt;/font&gt;&lt;/font&gt;&lt;/font&gt;" style="whiteSpace=wrap;html=1;align=center;" parent="1" vertex="1">
          <mxGeometry x="260" y="380" width="80" height="30" as="geometry" />
        </mxCell>
        <mxCell id="XzaRd1j-h2BiTwVMXHG0-6" value="&lt;font style=&quot;vertical-align: inherit;&quot;&gt;&lt;font style=&quot;vertical-align: inherit;&quot;&gt;&lt;font style=&quot;vertical-align: inherit;&quot;&gt;&lt;font style=&quot;vertical-align: inherit;&quot;&gt;&lt;font style=&quot;vertical-align: inherit;&quot;&gt;&lt;font style=&quot;vertical-align: inherit;&quot;&gt;Clientes&lt;/font&gt;&lt;/font&gt;&lt;/font&gt;&lt;/font&gt;&lt;/font&gt;&lt;/font&gt;" style="whiteSpace=wrap;html=1;align=center;" parent="1" vertex="1">
          <mxGeometry x="603" y="390" width="80" height="30" as="geometry" />
        </mxCell>
        <mxCell id="XzaRd1j-h2BiTwVMXHG0-9" value="" style="endArrow=none;html=1;rounded=0;" parent="1" source="evNd5tsoBMQe8YD3A1kR-10" target="XzaRd1j-h2BiTwVMXHG0-6" edge="1">
          <mxGeometry relative="1" as="geometry">
            <mxPoint x="420" y="450" as="sourcePoint" />
            <mxPoint x="530" y="450" as="targetPoint" />
          </mxGeometry>
        </mxCell>
        <mxCell id="XzaRd1j-h2BiTwVMXHG0-10" value="" style="endArrow=none;html=1;rounded=0;" parent="1" source="XzaRd1j-h2BiTwVMXHG0-5" target="XzaRd1j-h2BiTwVMXHG0-11" edge="1">
          <mxGeometry relative="1" as="geometry">
            <mxPoint x="314" y="440" as="sourcePoint" />
            <mxPoint x="300" y="440" as="targetPoint" />
          </mxGeometry>
        </mxCell>
        <mxCell id="XzaRd1j-h2BiTwVMXHG0-11" value="" style="triangle;whiteSpace=wrap;html=1;rotation=-90;" parent="1" vertex="1">
          <mxGeometry x="285" y="430" width="30" height="40" as="geometry" />
        </mxCell>
        <mxCell id="XzaRd1j-h2BiTwVMXHG0-12" value="&lt;font style=&quot;vertical-align: inherit;&quot;&gt;&lt;font style=&quot;vertical-align: inherit;&quot;&gt;D&lt;/font&gt;&lt;/font&gt;" style="text;html=1;strokeColor=none;fillColor=none;align=center;verticalAlign=middle;whiteSpace=wrap;rounded=0;" parent="1" vertex="1">
          <mxGeometry x="290" y="444" width="20" height="20" as="geometry" />
        </mxCell>
        <mxCell id="XzaRd1j-h2BiTwVMXHG0-13" value="" style="triangle;whiteSpace=wrap;html=1;rotation=-90;" parent="1" vertex="1">
          <mxGeometry x="630" y="440" width="30" height="40" as="geometry" />
        </mxCell>
        <mxCell id="XzaRd1j-h2BiTwVMXHG0-14" value="&lt;font style=&quot;vertical-align: inherit;&quot;&gt;&lt;font style=&quot;vertical-align: inherit;&quot;&gt;D&lt;/font&gt;&lt;/font&gt;" style="text;html=1;strokeColor=none;fillColor=none;align=center;verticalAlign=middle;whiteSpace=wrap;rounded=0;" parent="1" vertex="1">
          <mxGeometry x="636" y="453" width="20" height="20" as="geometry" />
        </mxCell>
        <mxCell id="XzaRd1j-h2BiTwVMXHG0-15" value="" style="endArrow=none;html=1;rounded=0;" parent="1" source="XzaRd1j-h2BiTwVMXHG0-13" target="XzaRd1j-h2BiTwVMXHG0-6" edge="1">
          <mxGeometry relative="1" as="geometry">
            <mxPoint x="597.5" y="450" as="sourcePoint" />
            <mxPoint x="607.5" y="450" as="targetPoint" />
          </mxGeometry>
        </mxCell>
        <mxCell id="XzaRd1j-h2BiTwVMXHG0-22" value="Historial" style="ellipse;whiteSpace=wrap;html=1;align=center;" parent="1" vertex="1">
          <mxGeometry x="697.5" y="430" width="50" height="20" as="geometry" />
        </mxCell>
        <mxCell id="XzaRd1j-h2BiTwVMXHG0-23" value="" style="endArrow=none;html=1;rounded=0;" parent="1" source="XzaRd1j-h2BiTwVMXHG0-22" target="XzaRd1j-h2BiTwVMXHG0-6" edge="1">
          <mxGeometry relative="1" as="geometry">
            <mxPoint x="370" y="650" as="sourcePoint" />
            <mxPoint x="530" y="650" as="targetPoint" />
          </mxGeometry>
        </mxCell>
        <mxCell id="XzaRd1j-h2BiTwVMXHG0-24" value="&lt;font style=&quot;vertical-align: inherit;&quot;&gt;&lt;font style=&quot;vertical-align: inherit;&quot;&gt;&lt;font style=&quot;vertical-align: inherit;&quot;&gt;&lt;font style=&quot;vertical-align: inherit;&quot;&gt;&lt;font style=&quot;vertical-align: inherit;&quot;&gt;&lt;font style=&quot;vertical-align: inherit;&quot;&gt;Cargo&lt;/font&gt;&lt;/font&gt;&lt;/font&gt;&lt;/font&gt;&lt;/font&gt;&lt;/font&gt;" style="ellipse;whiteSpace=wrap;html=1;align=center;" parent="1" vertex="1">
          <mxGeometry x="171.5" y="400" width="50" height="20" as="geometry" />
        </mxCell>
        <mxCell id="XzaRd1j-h2BiTwVMXHG0-25" value="" style="endArrow=none;html=1;rounded=0;" parent="1" source="XzaRd1j-h2BiTwVMXHG0-24" target="XzaRd1j-h2BiTwVMXHG0-5" edge="1">
          <mxGeometry relative="1" as="geometry">
            <mxPoint x="370" y="550" as="sourcePoint" />
            <mxPoint x="530" y="550" as="targetPoint" />
          </mxGeometry>
        </mxCell>
        <mxCell id="XzaRd1j-h2BiTwVMXHG0-26" value="&lt;font style=&quot;vertical-align: inherit;&quot;&gt;&lt;font style=&quot;vertical-align: inherit;&quot;&gt;&lt;font style=&quot;vertical-align: inherit;&quot;&gt;&lt;font style=&quot;vertical-align: inherit;&quot;&gt;&lt;font style=&quot;vertical-align: inherit;&quot;&gt;&lt;font style=&quot;vertical-align: inherit;&quot;&gt;Jornada&lt;/font&gt;&lt;/font&gt;&lt;/font&gt;&lt;/font&gt;&lt;/font&gt;&lt;/font&gt;" style="ellipse;whiteSpace=wrap;html=1;align=center;" parent="1" vertex="1">
          <mxGeometry x="367.5" y="405" width="50" height="20" as="geometry" />
        </mxCell>
        <mxCell id="XzaRd1j-h2BiTwVMXHG0-27" value="&lt;font style=&quot;vertical-align: inherit;&quot;&gt;&lt;font style=&quot;vertical-align: inherit;&quot;&gt;&lt;font style=&quot;vertical-align: inherit;&quot;&gt;&lt;font style=&quot;vertical-align: inherit;&quot;&gt;&lt;font style=&quot;vertical-align: inherit;&quot;&gt;&lt;font style=&quot;vertical-align: inherit;&quot;&gt;Horas&lt;/font&gt;&lt;/font&gt;&lt;/font&gt;&lt;/font&gt;&lt;/font&gt;&lt;/font&gt;" style="ellipse;whiteSpace=wrap;html=1;align=center;" parent="1" vertex="1">
          <mxGeometry x="424.5" y="385" width="45" height="20" as="geometry" />
        </mxCell>
        <mxCell id="XzaRd1j-h2BiTwVMXHG0-28" value="&lt;font style=&quot;vertical-align: inherit;&quot;&gt;&lt;font style=&quot;vertical-align: inherit;&quot;&gt;&lt;font style=&quot;vertical-align: inherit;&quot;&gt;&lt;font style=&quot;vertical-align: inherit;&quot;&gt;&lt;font style=&quot;vertical-align: inherit;&quot;&gt;&lt;font style=&quot;vertical-align: inherit;&quot;&gt;DÃ­a&lt;/font&gt;&lt;/font&gt;&lt;/font&gt;&lt;/font&gt;&lt;/font&gt;&lt;/font&gt;" style="ellipse;whiteSpace=wrap;html=1;align=center;" parent="1" vertex="1">
          <mxGeometry x="439.5" y="420" width="30" height="20" as="geometry" />
        </mxCell>
        <mxCell id="XzaRd1j-h2BiTwVMXHG0-29" value="" style="endArrow=none;html=1;rounded=0;" parent="1" source="XzaRd1j-h2BiTwVMXHG0-26" target="XzaRd1j-h2BiTwVMXHG0-27" edge="1">
          <mxGeometry relative="1" as="geometry">
            <mxPoint x="204.5" y="465" as="sourcePoint" />
            <mxPoint x="364.5" y="465" as="targetPoint" />
          </mxGeometry>
        </mxCell>
        <mxCell id="XzaRd1j-h2BiTwVMXHG0-30" value="" style="endArrow=none;html=1;rounded=0;" parent="1" source="XzaRd1j-h2BiTwVMXHG0-26" target="XzaRd1j-h2BiTwVMXHG0-28" edge="1">
          <mxGeometry relative="1" as="geometry">
            <mxPoint x="204.5" y="465" as="sourcePoint" />
            <mxPoint x="364.5" y="465" as="targetPoint" />
          </mxGeometry>
        </mxCell>
        <mxCell id="XzaRd1j-h2BiTwVMXHG0-31" value="" style="endArrow=none;html=1;rounded=0;" parent="1" source="XzaRd1j-h2BiTwVMXHG0-5" target="XzaRd1j-h2BiTwVMXHG0-26" edge="1">
          <mxGeometry relative="1" as="geometry">
            <mxPoint x="370" y="550" as="sourcePoint" />
            <mxPoint x="530" y="550" as="targetPoint" />
          </mxGeometry>
        </mxCell>
        <mxCell id="fwGwcqwbIWZPqn-SYJJV-1" value="&lt;font style=&quot;vertical-align: inherit;&quot;&gt;&lt;font style=&quot;vertical-align: inherit;&quot;&gt;&lt;font style=&quot;vertical-align: inherit;&quot;&gt;&lt;font style=&quot;vertical-align: inherit;&quot;&gt;&lt;font style=&quot;vertical-align: inherit;&quot;&gt;&lt;font style=&quot;vertical-align: inherit;&quot;&gt;Encargan&lt;/font&gt;&lt;/font&gt;&lt;/font&gt;&lt;/font&gt;&lt;/font&gt;&lt;/font&gt;" style="shape=rhombus;perimeter=rhombusPerimeter;whiteSpace=wrap;html=1;align=center;" vertex="1" parent="1">
          <mxGeometry x="301" y="185" width="80" height="30" as="geometry" />
        </mxCell>
        <mxCell id="fwGwcqwbIWZPqn-SYJJV-2" value="&lt;font style=&quot;vertical-align: inherit;&quot;&gt;&lt;font style=&quot;vertical-align: inherit;&quot;&gt;&lt;font style=&quot;vertical-align: inherit;&quot;&gt;&lt;font style=&quot;vertical-align: inherit;&quot;&gt;&lt;font style=&quot;vertical-align: inherit;&quot;&gt;&lt;font style=&quot;vertical-align: inherit;&quot;&gt;Compran&lt;/font&gt;&lt;/font&gt;&lt;/font&gt;&lt;/font&gt;&lt;/font&gt;&lt;/font&gt;" style="shape=rhombus;perimeter=rhombusPerimeter;whiteSpace=wrap;html=1;align=center;" vertex="1" parent="1">
          <mxGeometry x="542.5" y="185" width="80" height="30" as="geometry" />
        </mxCell>
        <mxCell id="fwGwcqwbIWZPqn-SYJJV-3" value="" style="endArrow=none;html=1;rounded=0;" edge="1" parent="1" source="fwGwcqwbIWZPqn-SYJJV-2" target="evNd5tsoBMQe8YD3A1kR-2">
          <mxGeometry relative="1" as="geometry">
            <mxPoint x="490" y="210" as="sourcePoint" />
            <mxPoint x="650" y="210" as="targetPoint" />
          </mxGeometry>
        </mxCell>
        <mxCell id="fwGwcqwbIWZPqn-SYJJV-4" value="" style="endArrow=none;html=1;rounded=0;" edge="1" parent="1" source="evNd5tsoBMQe8YD3A1kR-13" target="fwGwcqwbIWZPqn-SYJJV-2">
          <mxGeometry relative="1" as="geometry">
            <mxPoint x="490" y="210" as="sourcePoint" />
            <mxPoint x="650" y="210" as="targetPoint" />
          </mxGeometry>
        </mxCell>
        <mxCell id="fwGwcqwbIWZPqn-SYJJV-5" value="" style="endArrow=none;html=1;rounded=0;" edge="1" parent="1" source="evNd5tsoBMQe8YD3A1kR-1" target="fwGwcqwbIWZPqn-SYJJV-1">
          <mxGeometry relative="1" as="geometry">
            <mxPoint x="490" y="210" as="sourcePoint" />
            <mxPoint x="650" y="210" as="targetPoint" />
          </mxGeometry>
        </mxCell>
        <mxCell id="fwGwcqwbIWZPqn-SYJJV-7" value="" style="endArrow=none;html=1;rounded=0;entryX=0;entryY=0;entryDx=0;entryDy=0;" edge="1" parent="1" source="fwGwcqwbIWZPqn-SYJJV-1" target="evNd5tsoBMQe8YD3A1kR-13">
          <mxGeometry relative="1" as="geometry">
            <mxPoint x="490" y="210" as="sourcePoint" />
            <mxPoint x="650" y="210" as="targetPoint" />
          </mxGeometry>
        </mxCell>
        <mxCell id="fwGwcqwbIWZPqn-SYJJV-9" value="Cantidad" style="ellipse;whiteSpace=wrap;html=1;align=center;" vertex="1" parent="1">
          <mxGeometry x="462.5" y="50" width="62.5" height="20" as="geometry" />
        </mxCell>
        <mxCell id="fwGwcqwbIWZPqn-SYJJV-10" value="" style="endArrow=none;html=1;rounded=0;" edge="1" parent="1" source="evNd5tsoBMQe8YD3A1kR-3" target="fwGwcqwbIWZPqn-SYJJV-9">
          <mxGeometry relative="1" as="geometry">
            <mxPoint x="370" y="160" as="sourcePoint" />
            <mxPoint x="530" y="160" as="targetPoint" />
          </mxGeometry>
        </mxCell>
        <mxCell id="fwGwcqwbIWZPqn-SYJJV-18" value="1,n" style="text;html=1;strokeColor=none;fillColor=none;align=center;verticalAlign=middle;whiteSpace=wrap;rounded=0;" vertex="1" parent="1">
          <mxGeometry x="322.5" y="95" width="30" height="20" as="geometry" />
        </mxCell>
        <mxCell id="fwGwcqwbIWZPqn-SYJJV-19" value="1,n" style="text;html=1;strokeColor=none;fillColor=none;align=center;verticalAlign=middle;whiteSpace=wrap;rounded=0;" vertex="1" parent="1">
          <mxGeometry x="586.75" y="95" width="30" height="20" as="geometry" />
        </mxCell>
        <mxCell id="fwGwcqwbIWZPqn-SYJJV-20" value="1,1" style="text;html=1;strokeColor=none;fillColor=none;align=center;verticalAlign=middle;whiteSpace=wrap;rounded=0;" vertex="1" parent="1">
          <mxGeometry x="319" y="119" width="30" height="20" as="geometry" />
        </mxCell>
        <mxCell id="fwGwcqwbIWZPqn-SYJJV-21" value="1,n" style="text;html=1;strokeColor=none;fillColor=none;align=center;verticalAlign=middle;whiteSpace=wrap;rounded=0;" vertex="1" parent="1">
          <mxGeometry x="274.5" y="132" width="30" height="20" as="geometry" />
        </mxCell>
        <mxCell id="fwGwcqwbIWZPqn-SYJJV-22" value="1,n" style="text;html=1;strokeColor=none;fillColor=none;align=center;verticalAlign=middle;whiteSpace=wrap;rounded=0;" vertex="1" parent="1">
          <mxGeometry x="414" y="254.00000000000003" width="30" height="20" as="geometry" />
        </mxCell>
        <mxCell id="fwGwcqwbIWZPqn-SYJJV-23" value="1,n" style="text;html=1;strokeColor=none;fillColor=none;align=center;verticalAlign=middle;whiteSpace=wrap;rounded=0;" vertex="1" parent="1">
          <mxGeometry x="387.5" y="260.42" width="30" height="20" as="geometry" />
        </mxCell>
        <mxCell id="fwGwcqwbIWZPqn-SYJJV-24" value="1,n" style="text;html=1;strokeColor=none;fillColor=none;align=center;verticalAlign=middle;whiteSpace=wrap;rounded=0;" vertex="1" parent="1">
          <mxGeometry x="637.5" y="130" width="30" height="20" as="geometry" />
        </mxCell>
        <mxCell id="fwGwcqwbIWZPqn-SYJJV-25" value="1,1" style="text;html=1;strokeColor=none;fillColor=none;align=center;verticalAlign=middle;whiteSpace=wrap;rounded=0;" vertex="1" parent="1">
          <mxGeometry x="582.5" y="119" width="30" height="20" as="geometry" />
        </mxCell>
        <mxCell id="fwGwcqwbIWZPqn-SYJJV-26" value="1,n" style="text;html=1;strokeColor=none;fillColor=none;align=center;verticalAlign=middle;whiteSpace=wrap;rounded=0;" vertex="1" parent="1">
          <mxGeometry x="496.5" y="258" width="30" height="20" as="geometry" />
        </mxCell>
        <mxCell id="fwGwcqwbIWZPqn-SYJJV-27" value="1,n" style="text;html=1;strokeColor=none;fillColor=none;align=center;verticalAlign=middle;whiteSpace=wrap;rounded=0;" vertex="1" parent="1">
          <mxGeometry x="451.5" y="254" width="30" height="20" as="geometry" />
        </mxCell>
        <mxCell id="fwGwcqwbIWZPqn-SYJJV-32" value="1,n" style="text;html=1;strokeColor=none;fillColor=none;align=center;verticalAlign=middle;whiteSpace=wrap;rounded=0;" vertex="1" parent="1">
          <mxGeometry x="26" y="280" width="30" height="20" as="geometry" />
        </mxCell>
        <mxCell id="fwGwcqwbIWZPqn-SYJJV-33" value="1,1" style="text;html=1;strokeColor=none;fillColor=none;align=center;verticalAlign=middle;whiteSpace=wrap;rounded=0;" vertex="1" parent="1">
          <mxGeometry x="387.5" y="285" width="30" height="20" as="geometry" />
        </mxCell>
        <mxCell id="fwGwcqwbIWZPqn-SYJJV-34" value="1,1" style="text;html=1;strokeColor=none;fillColor=none;align=center;verticalAlign=middle;whiteSpace=wrap;rounded=0;" vertex="1" parent="1">
          <mxGeometry x="175.5" y="530" width="30" height="20" as="geometry" />
        </mxCell>
        <mxCell id="fwGwcqwbIWZPqn-SYJJV-35" value="1,n" style="text;html=1;strokeColor=none;fillColor=none;align=center;verticalAlign=middle;whiteSpace=wrap;rounded=0;" vertex="1" parent="1">
          <mxGeometry x="245.5" y="530" width="30" height="20" as="geometry" />
        </mxCell>
        <mxCell id="fwGwcqwbIWZPqn-SYJJV-36" value="1,1" style="text;html=1;strokeColor=none;fillColor=none;align=center;verticalAlign=middle;whiteSpace=wrap;rounded=0;" vertex="1" parent="1">
          <mxGeometry x="351.5" y="530" width="30" height="20" as="geometry" />
        </mxCell>
        <mxCell id="fwGwcqwbIWZPqn-SYJJV-37" value="1,n" style="text;html=1;strokeColor=none;fillColor=none;align=center;verticalAlign=middle;whiteSpace=wrap;rounded=0;" vertex="1" parent="1">
          <mxGeometry x="84.5" y="916" width="30" height="20" as="geometry" />
        </mxCell>
        <mxCell id="fwGwcqwbIWZPqn-SYJJV-38" value="1,n" style="text;html=1;strokeColor=none;fillColor=none;align=center;verticalAlign=middle;whiteSpace=wrap;rounded=0;" vertex="1" parent="1">
          <mxGeometry x="222.5" y="690" width="30" height="20" as="geometry" />
        </mxCell>
        <mxCell id="fwGwcqwbIWZPqn-SYJJV-39" value="1,n" style="text;html=1;strokeColor=none;fillColor=none;align=center;verticalAlign=middle;whiteSpace=wrap;rounded=0;" vertex="1" parent="1">
          <mxGeometry x="183" y="820" width="30" height="20" as="geometry" />
        </mxCell>
        <mxCell id="fwGwcqwbIWZPqn-SYJJV-40" value="1,n" style="text;html=1;strokeColor=none;fillColor=none;align=center;verticalAlign=middle;whiteSpace=wrap;rounded=0;" vertex="1" parent="1">
          <mxGeometry x="220" y="738" width="30" height="20" as="geometry" />
        </mxCell>
        <mxCell id="fwGwcqwbIWZPqn-SYJJV-41" value="1,n" style="text;html=1;strokeColor=none;fillColor=none;align=center;verticalAlign=middle;whiteSpace=wrap;rounded=0;" vertex="1" parent="1">
          <mxGeometry x="363" y="694" width="30" height="20" as="geometry" />
        </mxCell>
        <mxCell id="fwGwcqwbIWZPqn-SYJJV-42" value="1,1" style="text;html=1;strokeColor=none;fillColor=none;align=center;verticalAlign=middle;whiteSpace=wrap;rounded=0;" vertex="1" parent="1">
          <mxGeometry x="411.5" y="820" width="30" height="20" as="geometry" />
        </mxCell>
        <mxCell id="fwGwcqwbIWZPqn-SYJJV-44" value="1,1" style="text;html=1;strokeColor=none;fillColor=none;align=center;verticalAlign=middle;whiteSpace=wrap;rounded=0;" vertex="1" parent="1">
          <mxGeometry x="367.5" y="738" width="30" height="20" as="geometry" />
        </mxCell>
        <mxCell id="fwGwcqwbIWZPqn-SYJJV-45" value="1,1" style="text;html=1;strokeColor=none;fillColor=none;align=center;verticalAlign=middle;whiteSpace=wrap;rounded=0;" vertex="1" parent="1">
          <mxGeometry x="451.5" y="530" width="30" height="20" as="geometry" />
        </mxCell>
        <mxCell id="fwGwcqwbIWZPqn-SYJJV-46" value="1,n" style="text;html=1;strokeColor=none;fillColor=none;align=center;verticalAlign=middle;whiteSpace=wrap;rounded=0;" vertex="1" parent="1">
          <mxGeometry x="533.5" y="926" width="30" height="20" as="geometry" />
        </mxCell>
        <mxCell id="fwGwcqwbIWZPqn-SYJJV-47" value="1,n" style="text;html=1;strokeColor=none;fillColor=none;align=center;verticalAlign=middle;whiteSpace=wrap;rounded=0;" vertex="1" parent="1">
          <mxGeometry x="187.5" y="920" width="30" height="20" as="geometry" />
        </mxCell>
        <mxCell id="fwGwcqwbIWZPqn-SYJJV-48" value="1,n" style="text;html=1;strokeColor=none;fillColor=none;align=center;verticalAlign=middle;whiteSpace=wrap;rounded=0;" vertex="1" parent="1">
          <mxGeometry x="432" y="920" width="30" height="20" as="geometry" />
        </mxCell>
        <mxCell id="fwGwcqwbIWZPqn-SYJJV-49" value="1,1" style="text;html=1;strokeColor=none;fillColor=none;align=center;verticalAlign=middle;whiteSpace=wrap;rounded=0;" vertex="1" parent="1">
          <mxGeometry x="82" y="940" width="30" height="20" as="geometry" />
        </mxCell>
        <mxCell id="fwGwcqwbIWZPqn-SYJJV-50" value="1,1" style="text;html=1;strokeColor=none;fillColor=none;align=center;verticalAlign=middle;whiteSpace=wrap;rounded=0;" vertex="1" parent="1">
          <mxGeometry x="-20.5" y="300" width="30" height="20" as="geometry" />
        </mxCell>
      </root>
    </mxGraphModel>
  </diagram>
</mxfile>
